<?xml version="1.0" standalone="no"?>
<!DOCTYPE svg PUBLIC "-//W3C//DTD SVG 20010904//EN"
 "http://www.w3.org/TR/2001/REC-SVG-20010904/DTD/svg10.dtd">
<svg version="1.0" xmlns="http://www.w3.org/2000/svg"
 width="1450.000000pt" height="1450.000000pt" viewBox="0 0 1450.000000 1450.000000"
 preserveAspectRatio="xMidYMid meet">
<metadata>
Created by potrace 1.14, written by Peter Selinger 2001-2017
</metadata>
<g transform="translate(0.000000,1450.000000) scale(0.100000,-0.100000)"
fill="#000000" stroke="none">
<path d="M14237 13972 c-16 -9 -46 -46 -69 -82 -129 -206 -268 -264 -698 -290
-229 -14 -467 -38 -560 -57 -174 -35 -318 -111 -435 -228 -175 -176 -256 -405
-257 -725 0 -166 17 -283 67 -461 64 -227 95 -429 95 -624 0 -373 -113 -747
-319 -1056 -105 -157 -165 -219 -269 -274 -441 -238 -807 -597 -1061 -1040
l-50 -88 -248 -2 c-208 -1 -266 -5 -363 -24 -274 -52 -508 -130 -757 -251
-147 -72 -164 -78 -195 -69 -30 8 -241 49 -331 64 l-38 6 83 67 c107 86 245
224 331 331 107 132 187 260 295 467 170 327 307 522 501 714 286 284 582 419
959 437 153 7 302 -6 587 -53 251 -41 369 -45 408 -13 39 30 53 85 34 131 -23
54 -48 64 -188 77 -69 6 -197 25 -285 43 -153 31 -169 32 -404 33 -220 0 -257
-2 -360 -24 -467 -96 -853 -338 -1148 -719 -102 -133 -173 -251 -270 -452 -47
-96 -107 -211 -133 -255 -163 -276 -421 -535 -719 -719 -74 -46 -94 -54 -155
-60 -39 -4 -104 -14 -145 -22 -136 -27 -602 -189 -829 -288 -57 -25 -105 -46
-107 -46 -2 0 -4 49 -4 109 0 115 -18 245 -50 351 -11 35 -18 64 -17 65 1 0
28 13 59 29 143 71 217 223 218 445 0 95 -20 258 -46 366 -7 33 -14 63 -14 68
0 4 24 7 53 7 239 2 477 88 628 227 103 96 163 198 198 335 l19 72 106 27
c236 59 399 141 540 270 106 97 199 254 231 391 8 34 20 65 26 67 7 2 48 22
92 44 91 45 203 145 273 242 158 222 240 577 189 820 -11 55 -21 76 -45 98
-43 38 -80 36 -282 -22 -345 -99 -763 -203 -1253 -312 -310 -69 -499 -121
-670 -186 -478 -182 -862 -426 -1225 -778 l-145 -141 -63 12 c-34 6 -65 14
-68 17 -8 8 8 36 103 180 288 437 621 725 1106 956 224 107 368 161 1059 391
l646 215 7 -59 c11 -103 39 -136 115 -136 34 0 48 6 76 34 39 39 41 56 23 227
-13 131 -36 178 -96 198 -41 15 -42 14 -249 -63 -273 -102 -703 -246 -1034
-346 -336 -102 -447 -143 -645 -240 -332 -164 -589 -352 -856 -626 -180 -186
-350 -411 -474 -630 l-39 -71 -176 -1 c-438 -2 -811 -108 -1143 -325 -120 -79
-219 -161 -338 -283 -168 -173 -293 -352 -421 -602 -81 -160 -87 -195 -35
-246 31 -32 42 -35 261 -77 l228 -44 -6 -50 c-21 -183 -28 -376 -22 -627 5
-238 4 -283 -10 -323 -8 -26 -70 -136 -136 -243 -66 -108 -125 -209 -130 -224
-11 -31 4 -89 28 -109 8 -7 99 -46 202 -88 l187 -76 110 -432 c61 -237 117
-439 125 -449 8 -9 30 -23 48 -31 40 -16 94 -4 270 61 65 24 142 49 174 56
102 23 302 0 433 -50 l27 -10 -27 -47 c-108 -183 -220 -458 -279 -683 -60
-229 -86 -379 -106 -609 l-10 -124 -65 -131 c-175 -355 -231 -747 -160 -1126
9 -47 21 -113 28 -148 16 -91 1 -148 -97 -352 -89 -186 -160 -360 -246 -605
-29 -82 -55 -152 -56 -154 -2 -2 -61 19 -131 47 -259 102 -564 176 -943 227
-307 42 -644 120 -842 197 l-78 29 0 54 c0 83 -19 254 -36 320 -23 87 -77 184
-137 242 -89 87 -703 570 -740 582 -67 23 -122 -21 -186 -147 -12 -23 -24 -42
-27 -42 -4 0 -72 49 -153 108 -232 171 -245 180 -316 213 -167 79 -330 12
-417 -170 -32 -67 -33 -67 -92 -85 -47 -14 -70 -28 -116 -74 -73 -74 -101
-142 -105 -264 -2 -59 -8 -93 -19 -109 -14 -20 -16 -58 -16 -261 l0 -237 32
-37 c43 -49 330 -300 477 -418 374 -299 688 -478 971 -552 72 -19 138 -27 275
-34 323 -17 369 -34 875 -331 842 -495 1618 -930 1922 -1079 175 -86 322 -90
475 -15 116 57 169 119 309 361 259 444 650 1153 663 1201 26 92 -89 175 -170
122 -13 -9 -58 -81 -103 -165 -272 -508 -674 -1208 -725 -1261 -19 -20 -59
-47 -89 -61 -46 -21 -65 -24 -126 -20 -66 4 -84 11 -212 78 -470 247 -1128
618 -1919 1083 -159 94 -324 186 -365 203 -163 71 -369 113 -555 114 -156 1
-288 37 -490 135 -187 91 -432 256 -647 436 -211 177 -405 352 -423 381 -22
38 -25 110 -6 156 8 18 16 32 20 32 3 0 143 -100 311 -221 365 -265 386 -279
421 -279 60 0 79 20 232 250 82 124 153 229 157 234 5 4 38 -16 74 -45 36 -29
66 -53 66 -53 0 -1 -7 -33 -15 -71 -41 -193 9 -372 137 -490 72 -67 118 -83
170 -62 48 20 72 66 65 121 -5 33 -15 48 -57 85 -78 67 -95 107 -94 221 1 71
6 110 22 154 26 69 28 123 7 153 -8 12 -41 36 -73 54 -31 18 -83 58 -114 89
-85 85 -107 183 -65 284 l12 28 265 -207 c315 -247 350 -279 385 -356 23 -52
27 -78 36 -241 6 -101 12 -193 15 -205 24 -119 398 -252 969 -343 105 -16 249
-39 320 -51 296 -46 618 -136 798 -222 51 -25 160 -92 242 -151 126 -89 156
-106 187 -106 73 0 127 79 104 150 -8 26 -31 48 -101 97 -49 35 -94 68 -98 72
-5 5 29 113 78 247 108 296 139 370 230 559 103 213 110 238 110 375 0 87 -6
141 -24 220 -22 91 -25 130 -25 300 -1 192 10 290 46 412 l11 38 27 -108 c49
-191 115 -342 218 -497 128 -194 276 -332 479 -449 l82 -47 31 -102 c142 -457
490 -968 811 -1194 69 -47 80 -60 89 -96 75 -290 234 -542 460 -727 l87 -72
331 -546 c182 -301 340 -553 351 -559 30 -19 102 -16 128 5 11 9 58 76 103
147 423 668 1042 1483 1523 2003 241 261 247 268 247 311 0 33 -13 57 -83 152
-189 258 -363 539 -489 791 l-81 162 29 55 c120 231 380 598 629 891 252 296
403 585 496 953 34 132 32 161 -9 199 -34 32 -75 42 -117 28 -46 -15 -60 -41
-90 -165 -52 -211 -127 -398 -229 -568 -64 -106 -136 -202 -289 -383 -143
-169 -254 -318 -381 -511 -58 -87 -111 -167 -120 -178 -17 -23 -18 -60 15 340
27 313 29 679 5 873 -9 74 -16 142 -16 151 0 12 23 27 78 49 162 66 276 140
557 361 205 161 425 320 567 410 95 60 287 161 306 161 5 0 26 -26 47 -57 63
-96 147 -193 262 -303 172 -166 361 -290 585 -385 117 -50 230 -126 386 -260
178 -153 354 -351 412 -464 25 -49 40 -232 40 -478 0 -138 4 -215 14 -253 l14
-54 -375 -488 c-207 -269 -381 -487 -387 -484 -73 32 -150 61 -214 77 -99 27
-282 36 -393 20 -101 -15 -260 -66 -359 -116 l-72 -36 -29 27 c-71 68 -187
267 -244 418 -25 67 -25 69 -7 100 26 45 77 76 126 76 84 0 201 -96 265 -217
45 -84 98 -110 159 -79 52 27 63 49 72 144 11 116 44 179 107 203 41 15 115
11 149 -10 61 -37 114 -134 129 -235 11 -68 47 -106 106 -113 59 -7 80 5 124
71 71 107 168 175 250 176 67 0 114 42 115 102 0 53 -15 85 -52 109 -64 40
-200 9 -322 -72 -32 -22 -60 -38 -60 -37 -1 2 -11 20 -21 41 -11 21 -44 61
-72 88 -120 114 -299 146 -447 80 -51 -22 -126 -88 -156 -137 l-21 -33 -46 35
c-174 133 -388 139 -525 16 l-38 -34 -47 23 c-67 32 -187 33 -256 1 -72 -32
-120 -74 -152 -134 -25 -46 -30 -66 -33 -150 -5 -126 24 -234 113 -413 103
-208 308 -500 468 -667 93 -98 151 -123 282 -123 88 0 107 3 157 27 32 14 88
55 125 91 38 35 89 75 114 90 46 27 129 60 136 54 2 -2 -10 -33 -26 -68 -35
-77 -61 -196 -61 -277 0 -79 32 -201 72 -271 44 -78 140 -169 218 -208 221
-110 463 -75 667 96 84 70 91 66 73 -43 -11 -68 -31 -127 -71 -206 -35 -67
-39 -204 -9 -283 56 -149 140 -207 460 -318 520 -181 924 -194 1082 -37 59 60
82 120 82 218 -1 100 -21 155 -81 218 l-38 40 24 53 c31 68 34 169 7 246 -27
79 -95 165 -175 221 -69 49 -70 50 -50 67 11 10 34 48 52 84 29 60 32 74 32
161 0 86 -3 101 -32 163 -57 121 -180 218 -295 233 -40 6 -48 10 -42 23 38 91
46 219 21 303 -32 102 -110 195 -202 240 -25 12 -45 25 -45 29 0 5 159 247
177 268 1 2 11 -3 20 -11 86 -75 260 -93 376 -38 78 37 118 82 260 294 166
250 189 303 190 441 0 111 -20 192 -74 296 -24 46 -38 83 -33 91 4 7 126 187
272 400 l264 386 63 31 c36 18 82 52 109 80 l46 50 0 231 0 230 -36 39 c-115
128 -302 166 -459 92 -134 -62 -224 -184 -233 -315 l-5 -71 -205 -268 c-165
-217 -207 -266 -217 -255 -6 7 -74 112 -150 233 -474 750 -1060 1574 -1535
2155 -119 146 -127 159 -139 218 -46 238 -167 451 -327 580 -63 51 -231 142
-260 142 -28 0 -21 21 38 116 239 389 557 689 934 882 221 112 405 176 849
296 531 142 702 221 877 404 218 228 320 605 244 904 -44 172 -113 297 -312
563 -66 88 -130 184 -143 214 -88 206 3 454 199 545 30 14 63 26 73 26 37 0
243 74 327 117 49 24 117 69 153 98 188 155 285 425 247 691 -11 79 -16 92
-45 121 -38 38 -91 44 -138 15z m-86 -496 c-56 -117 -155 -204 -300 -262 -33
-14 -122 -40 -198 -59 -160 -39 -244 -69 -366 -130 -130 -66 -202 -118 -303
-219 -76 -77 -99 -107 -138 -186 -79 -159 -92 -303 -46 -483 26 -105 62 -185
145 -327 86 -146 108 -199 131 -311 21 -107 15 -272 -16 -378 -78 -275 -286
-523 -548 -656 -69 -35 -203 -87 -209 -81 -2 2 28 63 66 137 173 335 251 679
238 1049 -7 199 -25 323 -77 535 -69 285 -75 321 -74 535 0 185 1 199 27 277
65 194 197 312 419 377 115 33 248 52 503 71 250 18 406 38 512 65 76 20 198
72 238 103 11 8 21 14 23 12 2 -2 -10 -33 -27 -69z m-984 -882 c-23 -188 38
-342 259 -649 202 -281 254 -401 254 -586 0 -265 -146 -527 -365 -657 -70 -41
-240 -112 -270 -112 -10 0 0 20 33 63 101 129 173 278 215 446 17 70 21 115
21 241 -1 136 -4 167 -28 254 -30 113 -71 204 -144 329 -70 118 -109 214 -129
315 -20 100 -9 189 33 278 21 45 122 171 129 162 1 -2 -3 -39 -8 -84z m-3680
-486 c-7 -130 -32 -229 -85 -338 -49 -101 -175 -229 -282 -285 l-75 -40 -220
-1 c-370 -3 -599 -35 -880 -125 -223 -71 -275 -104 -275 -176 0 -65 42 -112
98 -113 18 0 106 24 195 54 266 89 449 121 755 133 213 7 206 13 147 -105
-123 -246 -417 -388 -870 -422 -283 -21 -437 -50 -477 -90 -53 -54 -35 -152
33 -180 24 -10 51 -9 157 9 70 11 167 24 215 27 l88 7 -21 -53 c-59 -151 -184
-253 -369 -302 -53 -14 -122 -22 -230 -25 l-154 -6 6 24 c36 156 39 183 29
246 -36 218 -215 363 -432 351 -95 -6 -160 -38 -246 -123 -73 -72 -104 -128
-104 -189 0 -36 6 -50 31 -75 56 -57 146 -36 185 42 39 77 98 117 171 117 62
0 104 -26 139 -86 107 -182 -101 -438 -419 -514 -282 -68 -594 41 -685 238
-22 47 -26 71 -26 137 0 96 22 151 111 278 310 440 718 795 1183 1031 325 165
533 234 1065 351 322 72 937 224 1125 279 63 19 117 34 119 35 2 1 1 -50 -2
-111z m-3637 -1288 c35 -6 66 -13 69 -15 2 -2 -14 -26 -36 -52 -105 -125 -180
-272 -207 -405 -20 -95 -20 -133 -1 -223 39 -184 180 -341 384 -425 134 -55
191 -65 376 -64 155 0 178 3 260 27 116 35 238 95 321 158 36 27 71 49 79 49
16 0 34 -59 66 -210 26 -125 31 -320 10 -389 -16 -57 -65 -105 -120 -122 -41
-12 -64 -9 -330 44 -157 31 -767 151 -1356 267 -588 116 -1175 231 -1303 257
l-232 46 36 66 c320 582 805 924 1417 1001 94 11 484 5 567 -10z m-1150 -1460
c201 -39 373 -73 383 -76 12 -4 17 -16 17 -46 0 -62 38 -233 71 -318 66 -173
211 -343 378 -444 175 -105 444 -175 517 -133 12 7 44 36 70 66 93 103 179
136 237 91 54 -43 60 -151 16 -284 -30 -89 -71 -151 -134 -198 -68 -52 -123
-68 -240 -74 -55 -3 -112 -10 -126 -15 -35 -14 -55 -52 -79 -154 -27 -117 -50
-167 -91 -197 -110 -83 -415 -235 -684 -341 -160 -63 -435 -160 -439 -155 -1
1 -48 183 -104 403 -86 340 -105 403 -125 421 -14 12 -89 47 -168 78 -79 32
-145 59 -146 60 -2 1 22 43 53 92 74 116 138 245 158 314 20 69 21 103 11 380
-5 148 -4 280 4 385 15 205 19 227 40 221 9 -3 180 -37 381 -76z m1028 -201
c196 -38 538 -106 759 -150 221 -43 404 -79 407 -79 10 0 64 -187 76 -262 18
-108 8 -302 -19 -396 -30 -103 -72 -191 -138 -290 -59 -89 -207 -244 -285
-299 l-46 -33 -11 63 c-6 35 -11 87 -11 116 0 45 5 59 34 94 47 58 101 169
127 263 31 110 31 265 0 346 -33 84 -79 139 -152 178 -147 78 -300 43 -460
-107 l-46 -43 -79 20 c-268 69 -472 271 -528 522 -27 125 -28 128 -5 128 11 0
180 -32 377 -71z m5030 -359 c157 -38 276 -103 365 -199 57 -62 126 -184 150
-267 l15 -51 -116 -1 c-641 -1 -1661 -528 -2281 -1178 -257 -269 -417 -497
-583 -828 -160 -321 -349 -629 -524 -856 -117 -151 -363 -397 -484 -483 -311
-220 -626 -300 -993 -252 -508 67 -815 372 -926 921 -31 149 -43 360 -31 518
17 222 31 270 148 501 79 157 69 152 147 75 92 -91 177 -214 245 -355 95 -198
112 -257 121 -425 8 -163 24 -233 74 -337 109 -223 408 -322 642 -213 168 78
273 241 458 711 114 290 127 321 172 417 40 84 39 123 -3 166 -60 59 -146 41
-187 -41 -40 -78 -134 -305 -217 -518 -106 -274 -165 -388 -244 -473 -99 -107
-271 -108 -376 -3 -56 56 -75 106 -92 244 -14 108 -7 135 99 402 125 315 220
503 374 741 104 159 104 191 1 264 -57 40 -106 91 -130 136 -11 20 -5 27 65
79 209 158 380 367 469 573 26 60 31 65 93 96 254 128 839 341 1012 369 151
25 255 29 409 17 80 -6 153 -13 163 -16 13 -4 -10 -23 -87 -69 -204 -123 -365
-245 -550 -417 -143 -134 -206 -210 -206 -249 0 -67 49 -119 113 -119 36 0 48
9 185 143 81 78 193 179 249 224 192 154 430 297 628 378 50 21 101 45 115 55
37 26 179 96 267 131 255 103 539 178 783 208 121 16 371 5 468 -19z m596
-750 c48 -18 558 -678 915 -1185 205 -289 580 -853 786 -1180 252 -400 547
-894 562 -944 21 -67 12 -174 -18 -231 -35 -66 -243 -372 -268 -394 -29 -26
-113 -34 -145 -12 -14 9 -109 89 -212 177 -271 235 -284 261 -284 578 0 108
-7 260 -14 338 -13 138 -15 145 -56 215 -23 40 -61 100 -85 133 -171 240 -573
587 -770 665 -231 92 -445 238 -630 431 -122 128 -192 228 -285 409 -68 132
-91 168 -118 183 -42 25 -95 16 -134 -23 -39 -39 -38 -91 3 -171 17 -34 29
-62 27 -64 -2 -2 -29 -15 -61 -29 -180 -79 -532 -317 -897 -606 -170 -135
-259 -195 -385 -258 -173 -86 -355 -132 -527 -132 -90 0 -90 0 -125 -35 -33
-33 -35 -38 -31 -87 10 -97 69 -119 270 -99 66 7 122 10 125 7 3 -2 12 -74 20
-158 21 -216 13 -658 -17 -903 -25 -206 -22 -284 14 -427 70 -274 247 -612
552 -1053 68 -98 124 -183 124 -188 0 -5 -38 -49 -84 -97 -174 -183 -554 -631
-708 -835 -34 -46 -66 -84 -70 -85 -5 0 -8 24 -8 53 0 108 -46 320 -87 402
-24 47 -53 74 -89 81 -63 12 -134 -45 -134 -107 0 -12 11 -50 24 -83 64 -160
79 -407 37 -605 -12 -57 -27 -113 -32 -124 -6 -10 -79 -117 -162 -236 -84
-119 -197 -285 -252 -369 -55 -83 -102 -152 -105 -152 -3 0 -130 209 -284 465
-263 438 -282 466 -340 514 -188 152 -353 372 -410 548 -20 60 -17 69 23 78
38 8 130 64 191 115 l48 41 45 -94 c79 -166 190 -306 321 -403 64 -48 100 -55
146 -28 81 48 78 146 -7 204 -56 38 -171 167 -215 242 -22 38 -60 126 -84 196
-52 148 -73 184 -162 266 -160 147 -200 209 -227 351 -17 87 -39 120 -89 134
-40 10 -84 -3 -116 -34 -21 -21 -25 -34 -24 -78 2 -75 38 -198 86 -291 31 -60
64 -103 125 -165 94 -95 94 -93 16 -159 -58 -48 -119 -81 -165 -88 -28 -5 -43
1 -98 42 -107 78 -190 154 -210 194 -55 108 -38 284 39 411 12 19 21 48 21 66
0 40 -39 88 -85 103 -66 22 -111 -10 -161 -113 -18 -38 -38 -90 -45 -118 -7
-27 -16 -49 -19 -49 -8 0 -107 172 -152 265 -45 90 -112 254 -107 259 2 2 45
-6 94 -17 124 -29 456 -31 585 -4 124 27 278 80 378 132 69 36 104 47 167 55
144 18 342 -16 520 -91 89 -37 125 -37 166 -1 39 35 51 105 25 145 -30 46
-249 131 -406 157 -41 7 -77 15 -79 16 -2 2 32 41 76 87 163 170 337 434 413
627 11 28 41 126 66 218 159 581 406 1159 642 1502 235 342 576 673 957 927
419 279 917 494 1310 564 109 19 319 25 359 9z m-5120 -322 c3 -13 10 -52 16
-88 30 -165 110 -334 212 -445 l57 -62 -34 -51 c-93 -137 -257 -459 -326 -639
-13 -35 -26 -63 -29 -63 -3 1 -24 41 -48 89 -94 195 -242 379 -397 494 -80 59
-197 124 -267 146 -21 7 -38 16 -38 19 0 4 57 36 128 71 361 179 451 259 502
446 16 56 19 61 51 67 19 4 61 14 94 21 33 8 63 15 67 16 4 0 10 -9 12 -21z
m8020 -1382 c67 -39 105 -126 86 -196 -16 -58 -53 -96 -118 -120 -31 -12 -67
-31 -79 -42 -11 -11 -135 -186 -275 -389 -139 -203 -256 -369 -260 -369 -4 0
-33 43 -64 96 -51 85 -56 98 -45 116 7 12 118 157 246 323 128 166 238 311
244 323 6 11 11 50 11 87 0 72 13 105 57 147 56 54 131 63 197 24z m-8965
-1200 c183 -375 532 -626 966 -692 133 -21 400 -13 537 15 189 39 394 118 563
219 166 99 395 300 485 425 19 27 36 44 38 38 7 -21 -80 -260 -137 -376 -276
-562 -734 -875 -1282 -875 -318 0 -654 136 -874 354 -247 245 -381 583 -391
981 l-4 160 30 -84 c16 -46 47 -120 69 -165z m-4612 -611 c43 -18 192 -123
364 -256 154 -119 159 -124 159 -155 0 -21 -65 -134 -77 -134 -2 0 -128 96
-280 213 -152 116 -283 217 -291 223 -12 9 -12 15 1 46 18 43 51 78 72 78 9 0
32 -7 52 -15z m12130 -411 l33 -29 -317 -461 -317 -460 -56 56 c-56 58 -136
108 -203 130 -21 6 -37 15 -35 20 2 4 161 212 353 462 l350 455 80 -73 c44
-39 95 -85 112 -100z m-12125 -84 c169 -129 307 -238 308 -243 0 -12 -84 -137
-93 -137 -12 0 -631 449 -636 461 -1 6 0 31 4 56 8 56 52 106 88 101 12 -2
161 -109 329 -238z m9457 -27 c11 -10 35 -58 52 -108 94 -269 261 -531 409
-640 66 -48 105 -47 184 5 225 146 490 187 736 114 27 -8 50 -18 50 -22 0 -4
-20 -15 -44 -25 -24 -10 -69 -33 -99 -51 -52 -32 -61 -34 -174 -38 -191 -8
-318 -61 -473 -198 -36 -31 -75 -62 -87 -68 -32 -17 -94 -15 -129 6 -58 32
-215 223 -332 401 -134 205 -263 508 -246 577 14 57 107 85 153 47z m2667
-585 c92 -81 84 -185 -26 -348 -53 -80 -59 -104 -35 -154 27 -56 54 -65 187
-59 112 6 119 5 172 -21 92 -45 128 -135 87 -219 -24 -49 -49 -69 -161 -125
-67 -33 -76 -41 -88 -76 -15 -48 -2 -96 33 -124 13 -10 55 -24 94 -31 124 -20
238 -87 277 -162 28 -55 13 -130 -35 -173 -20 -18 -28 -19 -154 -8 -141 13
-298 47 -385 83 l-54 22 9 71 c12 107 9 312 -6 391 -38 195 -132 383 -258 516
l-52 55 127 186 c70 103 136 191 147 197 40 20 83 13 121 -21z m-887 -303
c103 -57 161 -160 161 -288 0 -139 -54 -263 -159 -368 -217 -216 -520 -166
-597 99 -22 74 -15 197 16 275 49 127 181 257 303 297 92 30 204 24 276 -15z
m461 -381 c57 -87 103 -209 120 -317 15 -94 8 -277 -15 -357 -8 -30 -15 -73
-15 -94 0 -137 346 -262 780 -283 122 -6 136 -8 157 -29 27 -27 31 -88 8 -121
-30 -43 -140 -54 -333 -32 -280 30 -715 166 -804 250 -34 33 -38 41 -38 87 0
34 12 83 35 144 51 138 65 203 65 303 0 91 -24 204 -56 266 -13 26 -13 36 1
88 8 33 18 87 21 120 4 35 11 58 16 55 6 -4 32 -39 58 -80z"/>
<path d="M4720 8619 c-120 -37 -145 -60 -145 -130 0 -45 4 -54 33 -80 41 -37
75 -37 194 -1 117 35 148 62 148 127 0 40 -5 52 -34 81 -43 43 -68 43 -196 3z"/>
<path d="M7588 7364 c-53 -28 -73 -105 -43 -164 22 -43 53 -60 108 -60 43 0
54 5 84 35 34 34 35 38 31 92 -4 48 -10 61 -37 85 -36 32 -97 38 -143 12z"/>
<path d="M7964 3302 c-21 -16 -46 -37 -54 -47 -28 -35 -175 -137 -251 -176
-91 -45 -109 -67 -109 -129 1 -66 45 -110 110 -110 71 1 293 139 423 264 62
58 67 67 67 105 0 103 -102 154 -186 93z"/>
</g>
</svg>
