<?xml version="1.0" encoding="utf-8"?><svg xmlns="http://www.w3.org/2000/svg" xmlns:xlink="http://www.w3.org/1999/xlink"><symbol viewBox="0 0 512 512" id="cil-align-left" xmlns="http://www.w3.org/2000/svg"><rect width="480" height="32" x="16" y="64" fill="var(--ci-primary-color, currentColor)" class="aaci-primary"/><rect width="328" height="32" x="16" y="152" fill="var(--ci-primary-color, currentColor)" class="aaci-primary"/><rect width="480" height="32" x="16" y="240" fill="var(--ci-primary-color, currentColor)" class="aaci-primary"/><rect width="328" height="32" x="16" y="328" fill="var(--ci-primary-color, currentColor)" class="aaci-primary"/><rect width="480" height="32" x="16" y="416" fill="var(--ci-primary-color, currentColor)" class="aaci-primary"/></symbol><symbol viewBox="0 0 512 512" id="cil-audio" xmlns="http://www.w3.org/2000/svg"><path fill="var(--ci-primary-color, currentColor)" d="M110.763 110.763l-22.7-22.7c-.095.1-.193.186-.288.281a238.483 238.483 0 00-.7 336.573l22.7-22.7a206.144 206.144 0 01.988-291.462z" class="abci-primary"/><path fill="var(--ci-primary-color, currentColor)" d="M425.069 88.348c-.4-.4-.817-.793-1.223-1.194l-22.7 22.7a206.142 206.142 0 011.5 292.8l22.7 22.7a238.492 238.492 0 00-.281-337z" class="abci-primary"/><path fill="var(--ci-primary-color, currentColor)" d="M153.523 153.522a145.746 145.746 0 00-.989 205.944l22.617-22.617a113.8 113.8 0 01.989-160.71z" class="abci-primary"/><path fill="var(--ci-primary-color, currentColor)" d="M335.773 175.227a113.8 113.8 0 011.5 162.05L359.9 359.9a145.746 145.746 0 00-1.5-207.285z" class="abci-primary"/><path fill="var(--ci-primary-color, currentColor)" d="M294.766 216.234a55.914 55.914 0 1017.658 40.759 55.783 55.783 0 00-17.658-40.759zm-38.342 64.759a24 24 0 1124-24 24 24 0 01-24 24z" class="abci-primary"/></symbol><symbol viewBox="0 0 512 512" id="cil-bullhorn" xmlns="http://www.w3.org/2000/svg"><path fill="var(--ci-primary-color, currentColor)" d="M429 15.933l-253.574 120H15.992v211.728l52.192 148.267h114.654l-46.56-128h35.847L431.182 496h64.735L496 15.933zm-269.009 320h-56.025l.061 36.949 33.119 91.051h-46.3l-42.854-121.74V167.928h112zm32.125-172.495l175.876-83.233v348.858l-175.875-86.949zM463.923 464H438.66l-38.668-19.117V65.063l36.2-17.13h27.8z" class="acci-primary"/></symbol><symbol viewBox="0 0 512 512" id="cil-cat" xmlns="http://www.w3.org/2000/svg"><path fill="var(--ci-primary-color, currentColor)" d="M374.762 186.866a54.1 54.1 0 00-51.305-36.706H280V21.552l-18.263 2.609c-41.429 5.918-73.7 26.912-95.907 62.4-16.011 25.581-23.454 53.8-26.908 74.906-23.847 18.348-44.593 43.611-61.738 75.2-14.449 26.618-26.41 57.816-35.552 92.729-15.447 58.99-17.538 107.921-17.619 109.975L24.005 496H56v-55.636c.4-8.231 10.476-188.35 107.032-256.936l5.66-4.021.93-6.881C174.437 136.9 191.077 78.058 248 59.971V182.16h75.457a22.12 22.12 0 0121 14.974c12.757 37.656 34.677 84.777 68.839 106.921l-10.274 38.528a62.688 62.688 0 01-62.54 46.87c-28.668-.86-58.506 2.88-88.689 11.111L240 403.779V496h32v-67.532a265.353 265.353 0 0167.52-7.03 94.97 94.97 0 0094.418-70.61l17.088-64.081-12.726-5.454c-23.8-10.2-46.364-43.735-63.538-94.427z" class="adci-primary"/></symbol><symbol viewBox="0 0 512 512" id="cil-chat-bubble" xmlns="http://www.w3.org/2000/svg"><path fill="var(--ci-primary-color, currentColor)" d="M448.205 392.507c30.519-27.2 47.8-63.455 47.8-101.078 0-39.984-18.718-77.378-52.707-105.3C410.218 158.963 366.432 144 320 144s-90.218 14.963-123.293 42.131C162.718 214.051 144 251.445 144 291.429s18.718 77.378 52.707 105.3c33.075 27.168 76.861 42.13 123.293 42.13 6.187 0 12.412-.273 18.585-.816l10.546 9.141A199.849 199.849 0 00480 496h16v-34.057l-4.686-4.685a199.17 199.17 0 01-43.109-64.751zM370.089 423l-21.161-18.341-7.056.865A180.275 180.275 0 01320 406.857c-79.4 0-144-51.781-144-115.428S240.6 176 320 176s144 51.781 144 115.429c0 31.71-15.82 61.314-44.546 83.358l-9.215 7.071 4.252 12.035a231.287 231.287 0 0037.882 67.817A167.839 167.839 0 01370.089 423z" class="aeci-primary"/><path fill="var(--ci-primary-color, currentColor)" d="M60.185 317.476a220.491 220.491 0 0034.808-63.023l4.22-11.975-9.207-7.066C62.918 214.626 48 186.728 48 156.857 48 96.833 109.009 48 184 48c55.168 0 102.767 26.43 124.077 64.3 3.957-.192 7.931-.3 11.923-.3q12.027 0 23.834 1.167c-8.235-21.335-22.537-40.811-42.2-56.961C270.072 30.279 228.3 16 184 16S97.928 30.279 66.364 56.206C33.886 82.885 16 118.63 16 156.857c0 35.8 16.352 70.295 45.25 96.243a188.4 188.4 0 01-40.563 60.729L16 318.515V352h16a190.643 190.643 0 0085.231-20.125 157.3 157.3 0 01-5.071-33.645 158.729 158.729 0 01-51.975 19.246z" class="aeci-primary"/></symbol><symbol viewBox="0 0 512 512" id="cil-cog" xmlns="http://www.w3.org/2000/svg"><path fill="var(--ci-primary-color, currentColor)" d="M245.151 168a88 88 0 1088 88 88.1 88.1 0 00-88-88zm0 144a56 56 0 1156-56 56.063 56.063 0 01-56 56z" class="afci-primary"/><path fill="var(--ci-primary-color, currentColor)" d="M464.7 322.319l-31.77-26.153a193.081 193.081 0 000-80.332l31.77-26.153a19.941 19.941 0 004.606-25.439l-32.612-56.483a19.936 19.936 0 00-24.337-8.73l-38.561 14.447a192.038 192.038 0 00-69.54-40.192l-6.766-40.571A19.936 19.936 0 00277.762 16H212.54a19.937 19.937 0 00-19.728 16.712l-6.762 40.572a192.03 192.03 0 00-69.54 40.192L77.945 99.027a19.937 19.937 0 00-24.334 8.731L21 164.245a19.94 19.94 0 004.61 25.438l31.767 26.151a193.081 193.081 0 000 80.332l-31.77 26.153A19.942 19.942 0 0021 347.758l32.612 56.483a19.937 19.937 0 0024.337 8.73l38.562-14.447a192.03 192.03 0 0069.54 40.192l6.762 40.571A19.937 19.937 0 00212.54 496h65.222a19.936 19.936 0 0019.728-16.712l6.763-40.572a192.038 192.038 0 0069.54-40.192l38.564 14.449a19.938 19.938 0 0024.334-8.731l32.609-56.487a19.939 19.939 0 00-4.6-25.436zm-50.636 57.12l-48.109-18.024-7.285 7.334a159.955 159.955 0 01-72.625 41.973l-10 2.636L267.6 464h-44.89l-8.442-50.642-10-2.636a159.955 159.955 0 01-72.625-41.973l-7.285-7.334-48.117 18.024L53.8 340.562l39.629-32.624-2.7-9.973a160.9 160.9 0 010-83.93l2.7-9.972L53.8 171.439l22.446-38.878 48.109 18.024 7.285-7.334a159.955 159.955 0 0172.625-41.973l10-2.636L222.706 48H267.6l8.442 50.642 10 2.636a159.955 159.955 0 0172.625 41.973l7.285 7.334 48.109-18.024 22.447 38.877-39.629 32.625 2.7 9.972a160.9 160.9 0 010 83.93l-2.7 9.973 39.629 32.623z" class="afci-primary"/></symbol><symbol viewBox="0 0 512 512" id="cil-color-palette" xmlns="http://www.w3.org/2000/svg"><path fill="var(--ci-primary-color, currentColor)" d="M425.514 82.055C380.778 39.458 320.673 16 256.271 16c-60.023 0-119.856 20.073-164.156 55.071C43.032 109.85 16 164.161 16 224c0 60.1 15.531 98.87 48.876 122.019 28 19.438 68.412 27.731 135.124 27.731h29.75A26.28 26.28 0 01256 400v47.984a32 32 0 0032 32h.032l90.755-.088a32.094 32.094 0 0019.686-6.8c9.725-7.622 34.727-29.4 56.8-66.9C482.3 360.262 496 307.037 496 248c0-63.732-25.032-122.666-70.486-165.945zm2.173 307.915c-19.3 32.792-40.663 51.447-48.932 57.926l-90.755.088V400a58.316 58.316 0 00-58.25-58.25H200c-59.69 0-94.644-6.585-116.876-22.019C58.833 302.869 48 273.344 48 224 48 113.833 153.9 48 256.271 48 372.755 48 464 135.851 464 248c0 53.253-12.218 101.019-36.313 141.97z" class="agci-primary"/><path fill="var(--ci-primary-color, currentColor)" d="M128 144a56 56 0 1056 56 56.064 56.064 0 00-56-56zm0 80a24 24 0 1124-24 24.027 24.027 0 01-24 24z" class="agci-primary"/><path fill="var(--ci-primary-color, currentColor)" d="M240 72a56 56 0 1056 56 56.064 56.064 0 00-56-56zm0 80a24 24 0 1124-24 24.027 24.027 0 01-24 24z" class="agci-primary"/><path fill="var(--ci-primary-color, currentColor)" d="M360 128a56 56 0 1056 56 56.064 56.064 0 00-56-56zm0 80a24 24 0 1124-24 24.027 24.027 0 01-24 24z" class="agci-primary"/><path fill="var(--ci-primary-color, currentColor)" d="M376 264a56 56 0 1056 56 56.064 56.064 0 00-56-56zm0 80a24 24 0 1124-24 24.027 24.027 0 01-24 24z" class="agci-primary"/></symbol><symbol viewBox="0 0 512 512" id="cil-cursor-move" xmlns="http://www.w3.org/2000/svg"><polygon fill="var(--ci-primary-color, currentColor)" points="130.412 323.98 78.529 272.098 240 272.098 240 433.568 188.118 381.687 165.49 404.313 256 494.823 346.51 404.313 323.882 381.687 272 433.568 272 272.098 432.667 272.098 380.784 323.98 403.412 346.607 493.921 256.098 403.412 165.588 380.784 188.215 432.667 240.098 272 240.098 272 79.432 323.882 131.313 346.51 108.687 256 18.177 165.49 108.687 188.118 131.313 240 79.432 240 240.098 78.529 240.098 130.412 188.215 107.784 165.588 17.274 256.098 107.785 346.608 130.412 323.98" class="ahci-primary"/></symbol><symbol viewBox="0 0 512 512" id="cil-devices" xmlns="http://www.w3.org/2000/svg"><path fill="var(--ci-primary-color, currentColor)" d="M472 232h-48V120a24.028 24.028 0 00-24-24H40a24.028 24.028 0 00-24 24v246a24.028 24.028 0 0024 24h172v50h-60v32h152v-32h-60v-50h92v58a24.027 24.027 0 0024 24h112a24.027 24.027 0 0024-24V256a24.027 24.027 0 00-24-24zm-136 24v102H48V128h344v104h-32a24.027 24.027 0 00-24 24zm128 184h-96V264h96z" class="aici-primary"/></symbol><symbol viewBox="0 0 512 512" id="cil-dog" xmlns="http://www.w3.org/2000/svg"><path fill="var(--ci-primary-color, currentColor)" d="M393.3 161.33l-58.768-84.892a48.09 48.09 0 00-38.775-20.673l-111.527-1.6H184c-57.579 0-101.757 9.631-130.21 56.634C27.3 154.551 16 229.08 16 360v16h36.557L29.024 496h32.61l23.533-120H96a99.521 99.521 0 0070.088-27.992c16.979-16.246 29.226-38.472 35.419-64.274l.056-.232L229.006 152h-32.69l-25.979 124.488C162.425 309.168 138.766 344 96 344H48.06c.869-113.266 11.182-180.419 33.105-216.634 18.4-30.4 45.295-41.191 102.724-41.206l111.408 1.6a16.026 16.026 0 0112.925 6.891L374.7 190.67l89.3 14.884v16.959l-14.892 79.421c-4.395 23.441-11.908 35.249-42.718 38.95l-126.306 21.609L279.249 496h32l.667-106.493 98.7-16.9c22.36-2.749 38.857-9.955 50.426-22.023 9.89-10.318 15.909-23.5 19.519-42.752L496 225.487v-47.041z" class="ajci-primary"/></symbol><symbol viewBox="0 0 512 512" id="cil-equalizer" xmlns="http://www.w3.org/2000/svg"><path fill="var(--ci-primary-color, currentColor)" d="M96 146.025V16H64v130.025a64.009 64.009 0 000 123.95V496h32V269.975a64.009 64.009 0 000-123.95zM80 240a32 32 0 1132-32 32.036 32.036 0 01-32 32z" class="akci-primary"/><path fill="var(--ci-primary-color, currentColor)" d="M272 290.025V16h-32v274.025a64.009 64.009 0 000 123.95V496h32v-82.025a64.009 64.009 0 000-123.95zM256 384a32 32 0 1132-32 32.036 32.036 0 01-32 32z" class="akci-primary"/><path fill="var(--ci-primary-color, currentColor)" d="M448 82.025V16h-32v66.025a64.009 64.009 0 000 123.95V496h32V205.975a64.009 64.009 0 000-123.95zM432 176a32 32 0 1132-32 32.036 32.036 0 01-32 32z" class="akci-primary"/></symbol><symbol viewBox="0 0 512 512" id="cil-graph" xmlns="http://www.w3.org/2000/svg"><path fill="var(--ci-primary-color, currentColor)" d="M432 32a63.973 63.973 0 00-34.344 117.963L355.894 296.13A64.372 64.372 0 00352 296a63.659 63.659 0 00-38.193 12.678l-77.154-64.295A64 64 0 10131.259 269.7l-45.292 90.588A64.334 64.334 0 0080 360a64.082 64.082 0 1036.243 11.29l42.8-85.589a63.845 63.845 0 0059.982-14.356l74.7 62.252a64 64 0 1092.621-27.56l41.76-146.167c1.289.078 2.585.13 3.894.13a64 64 0 000-128zM80 456a32 32 0 1132-32 32.036 32.036 0 01-32 32zm96-200a32 32 0 1132-32 32.036 32.036 0 01-32 32zm176 136a32 32 0 1132-32 32.036 32.036 0 01-32 32zm80-264a32 32 0 1132-32 32.036 32.036 0 01-32 32z" class="alci-primary"/></symbol><symbol viewBox="0 0 512 512" id="cil-keyboard" xmlns="http://www.w3.org/2000/svg"><path fill="var(--ci-primary-color, currentColor)" d="M472 80H40a24.028 24.028 0 00-24 24v240a24.028 24.028 0 0024 24h432a24.028 24.028 0 0024-24V104a24.028 24.028 0 00-24-24zm-8 256H48V112h416z" class="amci-primary"/><rect width="160" height="32" x="144" y="272" fill="var(--ci-primary-color, currentColor)" class="amci-primary"/><rect width="32" height="32" x="80" y="272" fill="var(--ci-primary-color, currentColor)" class="amci-primary"/><rect width="32" height="32" x="400" y="272" fill="var(--ci-primary-color, currentColor)" class="amci-primary"/><rect width="32" height="32" x="336" y="272" fill="var(--ci-primary-color, currentColor)" class="amci-primary"/><rect width="32" height="32" x="368" y="208" fill="var(--ci-primary-color, currentColor)" class="amci-primary"/><rect width="32" height="32" x="304" y="208" fill="var(--ci-primary-color, currentColor)" class="amci-primary"/><rect width="32" height="32" x="240" y="208" fill="var(--ci-primary-color, currentColor)" class="amci-primary"/><rect width="32" height="32" x="176" y="208" fill="var(--ci-primary-color, currentColor)" class="amci-primary"/><rect width="32" height="32" x="112" y="208" fill="var(--ci-primary-color, currentColor)" class="amci-primary"/><rect width="32" height="32" x="336" y="144" fill="var(--ci-primary-color, currentColor)" class="amci-primary"/><rect width="32" height="32" x="400" y="144" fill="var(--ci-primary-color, currentColor)" class="amci-primary"/><rect width="32" height="32" x="272" y="144" fill="var(--ci-primary-color, currentColor)" class="amci-primary"/><rect width="32" height="32" x="208" y="144" fill="var(--ci-primary-color, currentColor)" class="amci-primary"/><rect width="32" height="32" x="144" y="144" fill="var(--ci-primary-color, currentColor)" class="amci-primary"/><rect width="32" height="32" x="80" y="144" fill="var(--ci-primary-color, currentColor)" class="amci-primary"/></symbol><symbol viewBox="0 0 512 512" id="cil-lan" xmlns="http://www.w3.org/2000/svg"><path fill="var(--ci-primary-color, currentColor)" d="M496 272v-32H272v-48h56a24.027 24.027 0 0024-24V40a24.027 24.027 0 00-24-24H184a24.027 24.027 0 00-24 24v128a24.027 24.027 0 0024 24h56v48H16v32h80v48H41.391a24.028 24.028 0 00-24 24v128a24.028 24.028 0 0024 24H184a24.027 24.027 0 0024-24V344a24.027 24.027 0 00-24-24h-56v-48h256v48h-56a24.027 24.027 0 00-24 24v128a24.027 24.027 0 0024 24h144a24.027 24.027 0 0024-24V344a24.027 24.027 0 00-24-24h-56v-48zM192 48h128v112H192zm-16 416H49.391V352H176zm288 0H336V352h128z" class="anci-primary"/></symbol><symbol viewBox="0 0 512 512" id="cil-lightbulb" xmlns="http://www.w3.org/2000/svg"><path fill="var(--ci-primary-color, currentColor)" d="M252.592 496h6.816a108.122 108.122 0 00108-108v-55.692a177.481 177.481 0 0066.37-138.531C433.778 95.751 354.027 16 256 16S78.222 95.751 78.222 193.777a177.477 177.477 0 0066.371 138.531V388a108.121 108.121 0 00107.999 108zm6.816-32h-6.816a76.106 76.106 0 01-70.631-48H330.04a76.107 76.107 0 01-70.632 48zm76-80H176.593v-40h158.815zM110.222 193.777C110.222 113.4 175.618 48 256 48s145.778 65.4 145.778 145.777a146.392 146.392 0 01-59.817 117.737l-.661.486H170.7l-.665-.486a146.394 146.394 0 01-59.813-117.737z" class="aoci-primary"/></symbol><symbol viewBox="0 0 512 512" id="cil-list-rich" xmlns="http://www.w3.org/2000/svg"><path fill="var(--ci-primary-color, currentColor)" d="M136 24H16v120h120zm-32 88H48V56h56z" class="apci-primary"/><path fill="var(--ci-primary-color, currentColor)" d="M136 200H16v120h120zm-32 88H48v-56h56z" class="apci-primary"/><path fill="var(--ci-primary-color, currentColor)" d="M136 376H16v120h120zm-32 88H48v-56h56z" class="apci-primary"/><rect width="320" height="32" x="176" y="23.998" fill="var(--ci-primary-color, currentColor)" class="apci-primary"/><rect width="256" height="32" x="176" y="111.998" fill="var(--ci-primary-color, currentColor)" class="apci-primary"/><rect width="320" height="32" x="176" y="199.998" fill="var(--ci-primary-color, currentColor)" class="apci-primary"/><rect width="256" height="32" x="176" y="287.998" fill="var(--ci-primary-color, currentColor)" class="apci-primary"/><rect width="256" height="32" x="176" y="463.998" fill="var(--ci-primary-color, currentColor)" class="apci-primary"/><rect width="320" height="32" x="176" y="375.998" fill="var(--ci-primary-color, currentColor)" class="apci-primary"/></symbol><symbol viewBox="0 0 512 512" id="cil-newspaper" xmlns="http://www.w3.org/2000/svg"><path fill="var(--ci-primary-color, currentColor)" d="M88 72v316a20 20 0 01-40 0V152H16v236a52.059 52.059 0 0052 52h376a52.059 52.059 0 0052-52V72zm376 316a20.023 20.023 0 01-20 20H116a51.722 51.722 0 004-20V104h344z" class="aqci-primary"/><path fill="var(--ci-primary-color, currentColor)" d="M296 136H152v160h144zm-32 128h-80v-96h80z" class="aqci-primary"/><rect width="104" height="32" x="328" y="136" fill="var(--ci-primary-color, currentColor)" class="aqci-primary"/><rect width="104" height="32" x="328" y="200" fill="var(--ci-primary-color, currentColor)" class="aqci-primary"/><rect width="104" height="32" x="328" y="264" fill="var(--ci-primary-color, currentColor)" class="aqci-primary"/></symbol><symbol viewBox="0 0 512 512" id="cil-people" xmlns="http://www.w3.org/2000/svg"><path fill="var(--ci-primary-color, currentColor)" d="M462.541 316.3l-64.344-42.1 24.774-45.418A79.124 79.124 0 00432.093 192v-72a103.941 103.941 0 00-174.609-76.477L279.232 67a71.989 71.989 0 01120.861 53v72a46.809 46.809 0 01-5.215 21.452L355.962 284.8l89.058 58.274a42.16 42.16 0 0119.073 35.421V432h-72v32h104v-85.506a74.061 74.061 0 00-33.552-62.194z" class="arci-primary"/><path fill="var(--ci-primary-color, currentColor)" d="M318.541 348.3l-64.343-42.1 24.773-45.418A79.124 79.124 0 00288.093 224v-72A104.212 104.212 0 00184.04 47.866C126.723 47.866 80.093 94.581 80.093 152v72a78 78 0 009.015 36.775l24.908 45.664L50.047 348.3A74.022 74.022 0 0016.5 410.4L16 496h336.093v-85.506a74.061 74.061 0 00-33.552-62.194zm1.552 115.7H48.186l.31-53.506a42.158 42.158 0 0119.073-35.421l88.682-58.029-39.051-71.592A46.838 46.838 0 01112.093 224v-72a72 72 0 11144 0v72a46.809 46.809 0 01-5.215 21.452L211.962 316.8l89.058 58.274a42.16 42.16 0 0119.073 35.421z" class="arci-primary"/></symbol><symbol viewBox="0 0 512 512" id="cil-pizza" xmlns="http://www.w3.org/2000/svg"><path fill="var(--ci-primary-color, currentColor)" d="M468.285 106.1c-73.4-48.951-142.775-73.181-212.079-74.076-70.18-.865-139.406 20.697-211.666 66.031a31.842 31.842 0 00-10.572 43.3l194.586 331.519A31.724 31.724 0 00256 488.676h.16a31.722 31.722 0 0027.434-15.537L477.96 149.191a31.959 31.959 0 00-9.675-43.091zm-17.764 26.624l-194.37 323.952L61.547 125.162C127.108 84.028 189.454 64 252.007 64q1.893 0 3.787.024c62.934.812 126.633 23.285 194.737 68.7z" class="asci-primary"/><path fill="var(--ci-primary-color, currentColor)" d="M223.576 231.487a27.731 27.731 0 10-22.507 32.113 27.731 27.731 0 0022.507-32.113z" class="asci-primary"/><circle cx="307.735" cy="283.762" r="27.731" fill="var(--ci-primary-color, currentColor)" class="asci-primary" transform="rotate(-40.627 307.731 283.76)"/><rect width="32.001" height="62.482" x="232" y="316.785" fill="var(--ci-primary-color, currentColor)" class="asci-primary" transform="rotate(-50.194 248.003 348.028)"/><rect width="68.352" height="32" x="253.824" y="180.026" fill="var(--ci-primary-color, currentColor)" class="asci-primary" transform="rotate(-20.556 288.002 196.026)"/><path fill="var(--ci-primary-color, currentColor)" d="M120.5 181.58c33.288-20.885 84.546-45.571 140.818-45.571q1.234 0 2.473.016c46.876.6 89.878 15 135.329 45.313l17.754-26.623c-50.825-33.893-99.337-50-152.671-50.688-65.052-.805-123.288 26.973-160.703 50.446z" class="asci-primary"/></symbol><symbol viewBox="0 0 512 512" id="cil-rss" xmlns="http://www.w3.org/2000/svg"><path fill="var(--ci-primary-color, currentColor)" d="M66 256v32c88.225 0 160 71.776 160 160h32c0-105.869-86.131-192-192-192z" class="atci-primary"/><path fill="var(--ci-primary-color, currentColor)" d="M66 140v32c152.187 0 276 123.813 276 276h32a305.982 305.982 0 00-90.211-217.789A305.987 305.987 0 0066 140z" class="atci-primary"/><path fill="var(--ci-primary-color, currentColor)" d="M456.674 282.955a422.588 422.588 0 00-90.861-134.768A422.724 422.724 0 0066 24v32c216.149 0 392 175.851 392 392h32a421.378 421.378 0 00-33.326-165.045z" class="atci-primary"/><path fill="var(--ci-primary-color, currentColor)" d="M90 360a64 64 0 1064 64 64.072 64.072 0 00-64-64zm0 96a32 32 0 1132-32 32.036 32.036 0 01-32 32z" class="atci-primary"/></symbol><symbol viewBox="0 0 512 512" id="cil-running" xmlns="http://www.w3.org/2000/svg"><path fill="var(--ci-primary-color, currentColor)" d="M353.415 200l-30.981-57.855-60.717-20.239-.14.432L167.21 149.3A32.133 32.133 0 00144 180.068V264h32v-83.931l73.6-21.028-32.512 99.633-.155-.056-29.464 82.5a16.088 16.088 0 01-20.127 9.8l-66.282-22.097-10.12 30.358 66.282 22.093a48 48 0 0060.378-29.391l24.232-67.849 17.173 5.6 48.3 48.3A15.9 15.9 0 01312 349.255V456h32V349.255a47.694 47.694 0 00-14.059-33.942l-48.265-48.264 26.783-82.077 19.269 34.683A24.011 24.011 0 00348.707 232H432v-32z" class="auci-primary"/><path fill="var(--ci-primary-color, currentColor)" d="M286.828 109.707a36 36 0 10-12.916-27.619 35.851 35.851 0 0012.916 27.619z" class="auci-primary"/></symbol><symbol viewBox="0 0 512 512" id="cil-sitemap" xmlns="http://www.w3.org/2000/svg"><path fill="var(--ci-primary-color, currentColor)" d="M472 328h-24v-64a24.027 24.027 0 00-24-24H272v-64h32a24.028 24.028 0 0024-24V80a24.028 24.028 0 00-24-24h-96a24.028 24.028 0 00-24 24v72a24.028 24.028 0 0024 24h32v64H88a24.027 24.027 0 00-24 24v64H40a24.028 24.028 0 00-24 24v72a24.028 24.028 0 0024 24h80a24.028 24.028 0 0024-24v-72a24.028 24.028 0 00-24-24H96v-56h144v56h-24a24.028 24.028 0 00-24 24v72a24.028 24.028 0 0024 24h80a24.028 24.028 0 0024-24v-72a24.028 24.028 0 00-24-24h-24v-56h144v56h-24a24.028 24.028 0 00-24 24v72a24.028 24.028 0 0024 24h80a24.028 24.028 0 0024-24v-72a24.028 24.028 0 00-24-24zM216 88h80v56h-80zM112 360v56H48v-56zm176 0v56h-64v-56zm176 56h-64v-56h64z" class="avci-primary"/></symbol><symbol viewBox="0 0 512 512" id="cil-user-plus" xmlns="http://www.w3.org/2000/svg"><path fill="var(--ci-primary-color, currentColor)" d="M208 16A112.127 112.127 0 0096 128v79.681a80.236 80.236 0 009.768 38.308l27.455 50.333L60.4 343.656A79.725 79.725 0 0024 410.732V496h288v-32H56v-53.268a47.836 47.836 0 0121.841-40.246l97.66-63.479-41.64-76.341A48.146 48.146 0 01128 207.681V128a80 80 0 01160 0v79.681a48.146 48.146 0 01-5.861 22.985L240.5 307.007l71.5 46.476v-38.166l-29.223-19 27.455-50.334A80.23 80.23 0 00320 207.681V128A112.127 112.127 0 00208 16z" class="awci-primary"/><polygon fill="var(--ci-primary-color, currentColor)" points="424 400 424 336 392 336 392 400 328 400 328 432 392 432 392 496 424 496 424 432 488 432 488 400 424 400" class="awci-primary"/></symbol><symbol viewBox="0 0 512 512" id="cil-voice-over-record" xmlns="http://www.w3.org/2000/svg"><path fill="var(--ci-primary-color, currentColor)" d="M342.322 104.837A100.443 100.443 0 01342.457 231l24.943 20.02a132.373 132.373 0 00-.178-166.261z" class="axci-primary"/><path fill="var(--ci-primary-color, currentColor)" d="M432.147 32.4l-24.989 20.15a183.6 183.6 0 01.248 230.594l25.03 20.1a216.053 216.053 0 00-.289-270.844z" class="axci-primary"/><path fill="var(--ci-primary-color, currentColor)" d="M347.6 343.656l-72.822-47.334 27.455-50.334A80.23 80.23 0 00312 207.681V128a112 112 0 00-224 0v79.681a80.236 80.236 0 009.768 38.308l27.455 50.333L52.4 343.656A79.725 79.725 0 0016 410.732V496h368v-85.268a79.725 79.725 0 00-36.4-67.076zM352 464H48v-53.268a47.836 47.836 0 0121.841-40.246l97.661-63.48-41.641-76.34A48.146 48.146 0 01120 207.681V128a80 80 0 01160 0v79.681a48.139 48.139 0 01-5.861 22.984L232.5 307.007l97.662 63.479A47.838 47.838 0 01352 410.732z" class="axci-primary"/></symbol><symbol viewBox="0 0 512 512" id="cil-weightlifitng" xmlns="http://www.w3.org/2000/svg"><circle cx="256" cy="156" r="36" fill="var(--ci-primary-color, currentColor)" class="ayci-primary"/><path fill="var(--ci-primary-color, currentColor)" d="M400 16v56H112V16H16v144h96v-56h25.278l7.524 90.289 79.2 39.6V336h-79.138l-7.413 133.426H169.5L175.136 368h161.728l5.636 101.426h32.05L367.136 336H288V233.889l79.2-39.6L374.722 104H400v56h96V16zM80 72v56H48V48h32zm256.8 101.71l-80.8 40.4-80.8-40.4-5.811-69.71h173.222zM464 128h-32V48h32z" class="ayci-primary"/></symbol><symbol viewBox="0 0 1450 1450" id="explicate" xmlns="http://www.w3.org/2000/svg"><g transform="matrix(.1 0 0 -.1 0 1450)"><path d="M14237 13972c-16-9-46-46-69-82-129-206-268-264-698-290-229-14-467-38-560-57-174-35-318-111-435-228-175-176-256-405-257-725 0-166 17-283 67-461 64-227 95-429 95-624 0-373-113-747-319-1056-105-157-165-219-269-274-441-238-807-597-1061-1040l-50-88-248-2c-208-1-266-5-363-24-274-52-508-130-757-251-147-72-164-78-195-69-30 8-241 49-331 64l-38 6 83 67c107 86 245 224 331 331 107 132 187 260 295 467 170 327 307 522 501 714 286 284 582 419 959 437 153 7 302-6 587-53 251-41 369-45 408-13 39 30 53 85 34 131-23 54-48 64-188 77-69 6-197 25-285 43-153 31-169 32-404 33-220 0-257-2-360-24-467-96-853-338-1148-719-102-133-173-251-270-452-47-96-107-211-133-255-163-276-421-535-719-719-74-46-94-54-155-60-39-4-104-14-145-22-136-27-602-189-829-288-57-25-105-46-107-46s-4 49-4 109c0 115-18 245-50 351-11 35-18 64-17 65 1 0 28 13 59 29 143 71 217 223 218 445 0 95-20 258-46 366-7 33-14 63-14 68 0 4 24 7 53 7 239 2 477 88 628 227 103 96 163 198 198 335l19 72 106 27c236 59 399 141 540 270 106 97 199 254 231 391 8 34 20 65 26 67 7 2 48 22 92 44 91 45 203 145 273 242 158 222 240 577 189 820-11 55-21 76-45 98-43 38-80 36-282-22-345-99-763-203-1253-312-310-69-499-121-670-186-478-182-862-426-1225-778l-145-141-63 12c-34 6-65 14-68 17-8 8 8 36 103 180 288 437 621 725 1106 956 224 107 368 161 1059 391l646 215 7-59c11-103 39-136 115-136 34 0 48 6 76 34 39 39 41 56 23 227-13 131-36 178-96 198-41 15-42 14-249-63-273-102-703-246-1034-346-336-102-447-143-645-240-332-164-589-352-856-626-180-186-350-411-474-630l-39-71-176-1c-438-2-811-108-1143-325-120-79-219-161-338-283-168-173-293-352-421-602-81-160-87-195-35-246 31-32 42-35 261-77l228-44-6-50c-21-183-28-376-22-627 5-238 4-283-10-323-8-26-70-136-136-243-66-108-125-209-130-224-11-31 4-89 28-109 8-7 99-46 202-88l187-76 110-432c61-237 117-439 125-449 8-9 30-23 48-31 40-16 94-4 270 61 65 24 142 49 174 56 102 23 302 0 433-50l27-10-27-47c-108-183-220-458-279-683-60-229-86-379-106-609l-10-124-65-131c-175-355-231-747-160-1126 9-47 21-113 28-148 16-91 1-148-97-352-89-186-160-360-246-605-29-82-55-152-56-154-2-2-61 19-131 47-259 102-564 176-943 227-307 42-644 120-842 197l-78 29v54c0 83-19 254-36 320-23 87-77 184-137 242-89 87-703 570-740 582-67 23-122-21-186-147-12-23-24-42-27-42-4 0-72 49-153 108-232 171-245 180-316 213-167 79-330 12-417-170-32-67-33-67-92-85-47-14-70-28-116-74-73-74-101-142-105-264-2-59-8-93-19-109-14-20-16-58-16-261v-237l32-37c43-49 330-300 477-418 374-299 688-478 971-552 72-19 138-27 275-34 323-17 369-34 875-331 842-495 1618-930 1922-1079 175-86 322-90 475-15 116 57 169 119 309 361 259 444 650 1153 663 1201 26 92-89 175-170 122-13-9-58-81-103-165-272-508-674-1208-725-1261-19-20-59-47-89-61-46-21-65-24-126-20-66 4-84 11-212 78-470 247-1128 618-1919 1083-159 94-324 186-365 203-163 71-369 113-555 114-156 1-288 37-490 135-187 91-432 256-647 436-211 177-405 352-423 381-22 38-25 110-6 156 8 18 16 32 20 32 3 0 143-100 311-221 365-265 386-279 421-279 60 0 79 20 232 250 82 124 153 229 157 234 5 4 38-16 74-45s66-53 66-53c0-1-7-33-15-71-41-193 9-372 137-490 72-67 118-83 170-62 48 20 72 66 65 121-5 33-15 48-57 85-78 67-95 107-94 221 1 71 6 110 22 154 26 69 28 123 7 153-8 12-41 36-73 54-31 18-83 58-114 89-85 85-107 183-65 284l12 28 265-207c315-247 350-279 385-356 23-52 27-78 36-241 6-101 12-193 15-205 24-119 398-252 969-343 105-16 249-39 320-51 296-46 618-136 798-222 51-25 160-92 242-151 126-89 156-106 187-106 73 0 127 79 104 150-8 26-31 48-101 97-49 35-94 68-98 72-5 5 29 113 78 247 108 296 139 370 230 559 103 213 110 238 110 375 0 87-6 141-24 220-22 91-25 130-25 300-1 192 10 290 46 412l11 38 27-108c49-191 115-342 218-497 128-194 276-332 479-449l82-47 31-102c142-457 490-968 811-1194 69-47 80-60 89-96 75-290 234-542 460-727l87-72 331-546c182-301 340-553 351-559 30-19 102-16 128 5 11 9 58 76 103 147 423 668 1042 1483 1523 2003 241 261 247 268 247 311 0 33-13 57-83 152-189 258-363 539-489 791l-81 162 29 55c120 231 380 598 629 891 252 296 403 585 496 953 34 132 32 161-9 199-34 32-75 42-117 28-46-15-60-41-90-165-52-211-127-398-229-568-64-106-136-202-289-383-143-169-254-318-381-511-58-87-111-167-120-178-17-23-18-60 15 340 27 313 29 679 5 873-9 74-16 142-16 151 0 12 23 27 78 49 162 66 276 140 557 361 205 161 425 320 567 410 95 60 287 161 306 161 5 0 26-26 47-57 63-96 147-193 262-303 172-166 361-290 585-385 117-50 230-126 386-260 178-153 354-351 412-464 25-49 40-232 40-478 0-138 4-215 14-253l14-54-375-488c-207-269-381-487-387-484-73 32-150 61-214 77-99 27-282 36-393 20-101-15-260-66-359-116l-72-36-29 27c-71 68-187 267-244 418-25 67-25 69-7 100 26 45 77 76 126 76 84 0 201-96 265-217 45-84 98-110 159-79 52 27 63 49 72 144 11 116 44 179 107 203 41 15 115 11 149-10 61-37 114-134 129-235 11-68 47-106 106-113s80 5 124 71c71 107 168 175 250 176 67 0 114 42 115 102 0 53-15 85-52 109-64 40-200 9-322-72-32-22-60-38-60-37-1 2-11 20-21 41-11 21-44 61-72 88-120 114-299 146-447 80-51-22-126-88-156-137l-21-33-46 35c-174 133-388 139-525 16l-38-34-47 23c-67 32-187 33-256 1-72-32-120-74-152-134-25-46-30-66-33-150-5-126 24-234 113-413 103-208 308-500 468-667 93-98 151-123 282-123 88 0 107 3 157 27 32 14 88 55 125 91 38 35 89 75 114 90 46 27 129 60 136 54 2-2-10-33-26-68-35-77-61-196-61-277 0-79 32-201 72-271 44-78 140-169 218-208 221-110 463-75 667 96 84 70 91 66 73-43-11-68-31-127-71-206-35-67-39-204-9-283 56-149 140-207 460-318 520-181 924-194 1082-37 59 60 82 120 82 218-1 100-21 155-81 218l-38 40 24 53c31 68 34 169 7 246-27 79-95 165-175 221-69 49-70 50-50 67 11 10 34 48 52 84 29 60 32 74 32 161 0 86-3 101-32 163-57 121-180 218-295 233-40 6-48 10-42 23 38 91 46 219 21 303-32 102-110 195-202 240-25 12-45 25-45 29 0 5 159 247 177 268 1 2 11-3 20-11 86-75 260-93 376-38 78 37 118 82 260 294 166 250 189 303 190 441 0 111-20 192-74 296-24 46-38 83-33 91 4 7 126 187 272 400l264 386 63 31c36 18 82 52 109 80l46 50v461l-36 39c-115 128-302 166-459 92-134-62-224-184-233-315l-5-71-205-268c-165-217-207-266-217-255-6 7-74 112-150 233-474 750-1060 1574-1535 2155-119 146-127 159-139 218-46 238-167 451-327 580-63 51-231 142-260 142-28 0-21 21 38 116 239 389 557 689 934 882 221 112 405 176 849 296 531 142 702 221 877 404 218 228 320 605 244 904-44 172-113 297-312 563-66 88-130 184-143 214-88 206 3 454 199 545 30 14 63 26 73 26 37 0 243 74 327 117 49 24 117 69 153 98 188 155 285 425 247 691-11 79-16 92-45 121-38 38-91 44-138 15zm-86-496c-56-117-155-204-300-262-33-14-122-40-198-59-160-39-244-69-366-130-130-66-202-118-303-219-76-77-99-107-138-186-79-159-92-303-46-483 26-105 62-185 145-327 86-146 108-199 131-311 21-107 15-272-16-378-78-275-286-523-548-656-69-35-203-87-209-81-2 2 28 63 66 137 173 335 251 679 238 1049-7 199-25 323-77 535-69 285-75 321-74 535 0 185 1 199 27 277 65 194 197 312 419 377 115 33 248 52 503 71 250 18 406 38 512 65 76 20 198 72 238 103 11 8 21 14 23 12s-10-33-27-69zm-984-882c-23-188 38-342 259-649 202-281 254-401 254-586 0-265-146-527-365-657-70-41-240-112-270-112-10 0 0 20 33 63 101 129 173 278 215 446 17 70 21 115 21 241-1 136-4 167-28 254-30 113-71 204-144 329-70 118-109 214-129 315-20 100-9 189 33 278 21 45 122 171 129 162 1-2-3-39-8-84zm-3680-486c-7-130-32-229-85-338-49-101-175-229-282-285l-75-40-220-1c-370-3-599-35-880-125-223-71-275-104-275-176 0-65 42-112 98-113 18 0 106 24 195 54 266 89 449 121 755 133 213 7 206 13 147-105-123-246-417-388-870-422-283-21-437-50-477-90-53-54-35-152 33-180 24-10 51-9 157 9 70 11 167 24 215 27l88 7-21-53c-59-151-184-253-369-302-53-14-122-22-230-25l-154-6 6 24c36 156 39 183 29 246-36 218-215 363-432 351-95-6-160-38-246-123-73-72-104-128-104-189 0-36 6-50 31-75 56-57 146-36 185 42 39 77 98 117 171 117 62 0 104-26 139-86 107-182-101-438-419-514-282-68-594 41-685 238-22 47-26 71-26 137 0 96 22 151 111 278 310 440 718 795 1183 1031 325 165 533 234 1065 351 322 72 937 224 1125 279 63 19 117 34 119 35s1-50-2-111zm-3637-1288c35-6 66-13 69-15 2-2-14-26-36-52-105-125-180-272-207-405-20-95-20-133-1-223 39-184 180-341 384-425 134-55 191-65 376-64 155 0 178 3 260 27 116 35 238 95 321 158 36 27 71 49 79 49 16 0 34-59 66-210 26-125 31-320 10-389-16-57-65-105-120-122-41-12-64-9-330 44-157 31-767 151-1356 267-588 116-1175 231-1303 257l-232 46 36 66c320 582 805 924 1417 1001 94 11 484 5 567-10zM4700 9360c201-39 373-73 383-76 12-4 17-16 17-46 0-62 38-233 71-318 66-173 211-343 378-444 175-105 444-175 517-133 12 7 44 36 70 66 93 103 179 136 237 91 54-43 60-151 16-284-30-89-71-151-134-198-68-52-123-68-240-74-55-3-112-10-126-15-35-14-55-52-79-154-27-117-50-167-91-197-110-83-415-235-684-341-160-63-435-160-439-155-1 1-48 183-104 403-86 340-105 403-125 421-14 12-89 47-168 78-79 32-145 59-146 60-2 1 22 43 53 92 74 116 138 245 158 314s21 103 11 380c-5 148-4 280 4 385 15 205 19 227 40 221 9-3 180-37 381-76zm1028-201c196-38 538-106 759-150 221-43 404-79 407-79 10 0 64-187 76-262 18-108 8-302-19-396-30-103-72-191-138-290-59-89-207-244-285-299l-46-33-11 63c-6 35-11 87-11 116 0 45 5 59 34 94 47 58 101 169 127 263 31 110 31 265 0 346-33 84-79 139-152 178-147 78-300 43-460-107l-46-43-79 20c-268 69-472 271-528 522-27 125-28 128-5 128 11 0 180-32 377-71zm5030-359c157-38 276-103 365-199 57-62 126-184 150-267l15-51-116-1c-641-1-1661-528-2281-1178-257-269-417-497-583-828-160-321-349-629-524-856-117-151-363-397-484-483-311-220-626-300-993-252-508 67-815 372-926 921-31 149-43 360-31 518 17 222 31 270 148 501 79 157 69 152 147 75 92-91 177-214 245-355 95-198 112-257 121-425 8-163 24-233 74-337 109-223 408-322 642-213 168 78 273 241 458 711 114 290 127 321 172 417 40 84 39 123-3 166-60 59-146 41-187-41-40-78-134-305-217-518-106-274-165-388-244-473-99-107-271-108-376-3-56 56-75 106-92 244-14 108-7 135 99 402 125 315 220 503 374 741 104 159 104 191 1 264-57 40-106 91-130 136-11 20-5 27 65 79 209 158 380 367 469 573 26 60 31 65 93 96 254 128 839 341 1012 369 151 25 255 29 409 17 80-6 153-13 163-16 13-4-10-23-87-69-204-123-365-245-550-417-143-134-206-210-206-249 0-67 49-119 113-119 36 0 48 9 185 143 81 78 193 179 249 224 192 154 430 297 628 378 50 21 101 45 115 55 37 26 179 96 267 131 255 103 539 178 783 208 121 16 371 5 468-19zm596-750c48-18 558-678 915-1185 205-289 580-853 786-1180 252-400 547-894 562-944 21-67 12-174-18-231-35-66-243-372-268-394-29-26-113-34-145-12-14 9-109 89-212 177-271 235-284 261-284 578 0 108-7 260-14 338-13 138-15 145-56 215-23 40-61 100-85 133-171 240-573 587-770 665-231 92-445 238-630 431-122 128-192 228-285 409-68 132-91 168-118 183-42 25-95 16-134-23s-38-91 3-171c17-34 29-62 27-64s-29-15-61-29c-180-79-532-317-897-606-170-135-259-195-385-258-173-86-355-132-527-132-90 0-90 0-125-35-33-33-35-38-31-87 10-97 69-119 270-99 66 7 122 10 125 7 3-2 12-74 20-158 21-216 13-658-17-903-25-206-22-284 14-427 70-274 247-612 552-1053 68-98 124-183 124-188s-38-49-84-97c-174-183-554-631-708-835-34-46-66-84-70-85-5 0-8 24-8 53 0 108-46 320-87 402-24 47-53 74-89 81-63 12-134-45-134-107 0-12 11-50 24-83 64-160 79-407 37-605-12-57-27-113-32-124-6-10-79-117-162-236-84-119-197-285-252-369-55-83-102-152-105-152s-130 209-284 465c-263 438-282 466-340 514-188 152-353 372-410 548-20 60-17 69 23 78 38 8 130 64 191 115l48 41 45-94c79-166 190-306 321-403 64-48 100-55 146-28 81 48 78 146-7 204-56 38-171 167-215 242-22 38-60 126-84 196-52 148-73 184-162 266-160 147-200 209-227 351-17 87-39 120-89 134-40 10-84-3-116-34-21-21-25-34-24-78 2-75 38-198 86-291 31-60 64-103 125-165 94-95 94-93 16-159-58-48-119-81-165-88-28-5-43 1-98 42-107 78-190 154-210 194-55 108-38 284 39 411 12 19 21 48 21 66 0 40-39 88-85 103-66 22-111-10-161-113-18-38-38-90-45-118-7-27-16-49-19-49-8 0-107 172-152 265-45 90-112 254-107 259 2 2 45-6 94-17 124-29 456-31 585-4 124 27 278 80 378 132 69 36 104 47 167 55 144 18 342-16 520-91 89-37 125-37 166-1 39 35 51 105 25 145-30 46-249 131-406 157-41 7-77 15-79 16-2 2 32 41 76 87 163 170 337 434 413 627 11 28 41 126 66 218 159 581 406 1159 642 1502 235 342 576 673 957 927 419 279 917 494 1310 564 109 19 319 25 359 9zm-5120-322c3-13 10-52 16-88 30-165 110-334 212-445l57-62-34-51c-93-137-257-459-326-639-13-35-26-63-29-63-3 1-24 41-48 89-94 195-242 379-397 494-80 59-197 124-267 146-21 7-38 16-38 19 0 4 57 36 128 71 361 179 451 259 502 446 16 56 19 61 51 67 19 4 61 14 94 21 33 8 63 15 67 16 4 0 10-9 12-21zm8020-1382c67-39 105-126 86-196-16-58-53-96-118-120-31-12-67-31-79-42-11-11-135-186-275-389-139-203-256-369-260-369s-33 43-64 96c-51 85-56 98-45 116 7 12 118 157 246 323s238 311 244 323c6 11 11 50 11 87 0 72 13 105 57 147 56 54 131 63 197 24zM5289 5146c183-375 532-626 966-692 133-21 400-13 537 15 189 39 394 118 563 219 166 99 395 300 485 425 19 27 36 44 38 38 7-21-80-260-137-376-276-562-734-875-1282-875-318 0-654 136-874 354-247 245-381 583-391 981l-4 160 30-84c16-46 47-120 69-165zM677 4535c43-18 192-123 364-256 154-119 159-124 159-155 0-21-65-134-77-134-2 0-128 96-280 213-152 116-283 217-291 223-12 9-12 15 1 46 18 43 51 78 72 78 9 0 32-7 52-15zm12130-411l33-29-317-461-317-460-56 56c-56 58-136 108-203 130-21 6-37 15-35 20 2 4 161 212 353 462l350 455 80-73c44-39 95-85 112-100zM682 4040c169-129 307-238 308-243 0-12-84-137-93-137-12 0-631 449-636 461-1 6 0 31 4 56 8 56 52 106 88 101 12-2 161-109 329-238zm9457-27c11-10 35-58 52-108 94-269 261-531 409-640 66-48 105-47 184 5 225 146 490 187 736 114 27-8 50-18 50-22s-20-15-44-25-69-33-99-51c-52-32-61-34-174-38-191-8-318-61-473-198-36-31-75-62-87-68-32-17-94-15-129 6-58 32-215 223-332 401-134 205-263 508-246 577 14 57 107 85 153 47zm2667-585c92-81 84-185-26-348-53-80-59-104-35-154 27-56 54-65 187-59 112 6 119 5 172-21 92-45 128-135 87-219-24-49-49-69-161-125-67-33-76-41-88-76-15-48-2-96 33-124 13-10 55-24 94-31 124-20 238-87 277-162 28-55 13-130-35-173-20-18-28-19-154-8-141 13-298 47-385 83l-54 22 9 71c12 107 9 312-6 391-38 195-132 383-258 516l-52 55 127 186c70 103 136 191 147 197 40 20 83 13 121-21zm-887-303c103-57 161-160 161-288 0-139-54-263-159-368-217-216-520-166-597 99-22 74-15 197 16 275 49 127 181 257 303 297 92 30 204 24 276-15zm461-381c57-87 103-209 120-317 15-94 8-277-15-357-8-30-15-73-15-94 0-137 346-262 780-283 122-6 136-8 157-29 27-27 31-88 8-121-30-43-140-54-333-32-280 30-715 166-804 250-34 33-38 41-38 87 0 34 12 83 35 144 51 138 65 203 65 303 0 91-24 204-56 266-13 26-13 36 1 88 8 33 18 87 21 120 4 35 11 58 16 55 6-4 32-39 58-80z"/><path d="M4720 8619c-120-37-145-60-145-130 0-45 4-54 33-80 41-37 75-37 194-1 117 35 148 62 148 127 0 40-5 52-34 81-43 43-68 43-196 3z"/><path d="M7588 7364c-53-28-73-105-43-164 22-43 53-60 108-60 43 0 54 5 84 35 34 34 35 38 31 92-4 48-10 61-37 85-36 32-97 38-143 12z"/><path d="M7964 3302c-21-16-46-37-54-47-28-35-175-137-251-176-91-45-109-67-109-129 1-66 45-110 110-110 71 1 293 139 423 264 62 58 67 67 67 105 0 103-102 154-186 93z"/></g></symbol><symbol viewBox="0 0 400 400" id="explicate-capital-llc" xmlns="http://www.w3.org/2000/svg"><path d="M382.534 24.65c-5.17 5.508-5.952 5.784-20.048 7.054-27.565 2.485-35.715 13.369-29.273 39.096 6.039 24.122-.518 44.425-17.568 54.4-6.764 3.957-17.379 14.441-21.645 21.378l-3.2 5.203-8.4.439c-9.432.493-19.461 3.073-27.271 7.016-4.244 2.142-5.137 2.326-7.762 1.597-1.632-.453-3.926-.826-5.098-.829-1.976-.004-1.751-.366 3.118-5.004 5.457-5.198 10.081-11.797 16.213-23.141 10.19-18.848 25.631-27.31 44.984-24.649 13.003 1.787 17.756 1.615 18.077-.654.366-2.576-1.216-4.156-4.159-4.156-1.376 0-5.324-.54-8.772-1.2-25.097-4.803-47.387 7.496-58.725 32.4-5.898 12.957-17.725 23.972-28.066 26.14-5.257 1.102-19.474 5.904-23.385 7.898l-2.045 1.044-.958-6.541-.957-6.541 2.026-1.483c4.214-3.086 5.579-9.184 4.166-18.612l-.613-4.095 4.213-.537c8.721-1.11 16.318-6.685 18.364-13.477.764-2.533 1.389-3.133 3.993-3.834 10.388-2.798 19.857-10.954 19.857-17.106 0-.664 1.89-2.417 4.2-3.896 7.247-4.639 11.8-13.834 11.8-23.831 0-5.231-2.051-8.546-4.662-7.533-2.416.937-25.115 6.715-36.138 9.199-23.322 5.254-37.014 11.889-50.193 24.321-12.208 11.516-9.566 1.977 2.993-10.809 10.016-10.196 18.254-14.467 46.127-23.91 18.699-6.336 19.473-6.49 19.473-3.892 0 2.418 2.891 3.404 4.693 1.602 1.959-1.959 1.515-8.636-.702-10.579-1.571-1.377-43.221 11.637-52.967 16.55-13.122 6.615-31.012 23.821-34.665 33.341-.319.831-2.56 1.283-8.199 1.651-21.567 1.407-36.899 11.401-47.106 30.705-4.193 7.93-3.984 8.184 9.086 11.045 1.707.373 1.737.628 1.6 13.38l-.14 13-3.934 6.698c-4.651 7.921-4.548 8.34 2.768 11.316l5.098 2.073 2.861 11.487c3.458 13.878 3.463 13.883 11.392 11.319 3.198-1.034 6.278-2.011 6.843-2.172.932-.265 9.023 1.158 9.624 1.693.139.123-.809 2.331-2.106 4.905-3.395 6.74-6.349 16.69-7.368 24.823-.96 7.666-1.213 8.602-4.34 16.051-3.218 7.667-4.146 15.924-2.871 25.557l1.058 7.991-3.607 7.93c-1.984 4.361-4.2 9.729-4.925 11.929-2.069 6.286-1.775 6.166-8.927 3.635-3.52-1.245-11.973-3.218-18.783-4.383-25.018-4.28-26.82-5.057-27.361-11.799-.596-7.43-1.943-9.319-12.989-18.227-11.074-8.929-13.135-9.684-15.253-5.587l-1.262 2.439-3.359-2.516c-10.366-7.768-13.749-8.587-18.125-4.394-1.339 1.282-2.434 2.76-2.434 3.285 0 .524-1.108 1.412-2.462 1.973-3.041 1.259-4.831 3.893-5.605 8.243-.326 1.832-1.174 4.895-1.885 6.807-2.62 7.046-.543 10.295 14.127 22.104 13.168 10.6 21.802 14.677 33.218 15.686 9.131.806 10.281 1.311 32.463 14.222 50.751 29.541 53.407 30.222 61.827 15.865 10.161-17.324 18.783-33.678 18.565-35.212-.593-4.163-5.117-2.751-7.724 2.411-5.457 10.806-17.911 31.986-19.784 33.648-3.954 3.508-9.191 1.171-48.425-21.613-25.887-15.032-24.937-14.624-36.668-15.762-11.125-1.08-20.124-5.962-35.108-19.048-11.646-10.17-9.772-13.106 2.633-4.125 11.084 8.025 11.277 8.026 16.629.031 5.282-7.889 7.572-7.533 7.183 1.117-.239 5.312 1.313 8.847 4.924 11.213 4.449 2.916 7.225-2.329 3.215-6.074-2.111-1.972-2.349-5.564-.715-10.839.421-1.359-.12-2.161-2.695-4-3.32-2.371-4.913-4.815-4.913-7.538 0-2.51 1.256-1.907 9.209 4.425 8.817 7.019 8.831 7.041 9.45 14.785.686 8.588 3.843 10.286 26.141 14.054 21.309 3.602 27.689 5.57 35.256 10.878 7.339 5.148 13.091 1.693 6.082-3.653l-2.754-2.101 2.734-7.375c1.504-4.056 3.845-9.715 5.202-12.575 3.657-7.708 3.976-9.847 2.627-17.6-1.81-10.404-.281-20.819 1.996-13.6 2.941 9.321 7.895 16.085 15.575 21.263 3.386 2.282 4.22 3.414 6.13 8.324 4.247 10.917 12.69 23.135 19.016 27.518 2.154 1.494 3.585 3.259 4.198 5.18 1.859 5.824 5.898 12.284 10.059 16.086 3.089 2.824 6.568 7.737 12.713 17.955 11.406 18.966 10.547 18.748 19.733 4.995 11.94-17.875 24.397-33.994 36.516-47.249 7.838-8.573 7.766-7.359 1.031-17.452-8.1-12.138-11.564-18.716-11.012-20.913.705-2.812 7.421-12.702 15.283-22.507 12.544-15.644 19.07-33.888 11.823-33.054-1.989.23-2.402.872-4.278 6.654-2.694 8.304-5.337 13.309-10.081 19.09-3.373 4.11-10.678 13.821-14.843 19.732l-1.394 1.978.564-2.4c.311-1.32.578-9.49.594-18.157l.03-15.756 3.724-1.745c2.048-.959 6.728-4.061 10.4-6.893 8.676-6.691 22.943-16.249 24.255-16.249.565 0 2.558 1.986 4.431 4.413 4.175 5.411 11.471 11.042 18.39 14.193 8.318 3.788 18.983 13.162 22.349 19.643.531 1.023 1.097 6.206 1.266 11.6l.307 9.751-9.638 12.527-9.637 12.527-2.924-1.278c-4.522-1.978-14.597-1.687-20.442.59l-4.72 1.838-1.482-1.902c-5.403-6.934-6.574-12.955-2.596-13.343 2.517-.247 3.219.276 7.717 5.744 2.329 2.831 5.16 2.366 5.828-.956.917-4.567 1.634-5.995 3.321-6.615 2.375-.873 5.56 1.702 6.282 5.078 1.163 5.44 3.396 5.938 7.572 1.686 1.569-1.597 4.1-3.307 5.625-3.8 2.152-.696 2.828-1.387 3.024-3.089.404-3.506-2.616-4.429-7.47-2.281l-3.82 1.69-1.13-1.613c-3.171-4.527-11.335-5.428-15.604-1.721l-2.628 2.281-2.4-1.477c-3.215-1.979-9.226-1.969-11.682.019-1.447 1.172-2.25 1.327-3.627.7-9.269-4.223-14.235 7.043-8.363 18.971 8.444 17.152 18.416 24.601 25.754 19.237 7.748-5.664 8.446-5.906 7.14-2.472-5.555 14.611 11.313 27.049 23.588 17.394 3.089-2.429 3.249-1.813 1.094 4.195-3.449 9.618-.445 13.621 13.615 18.14 12.505 4.019 23.141 4.143 26.97.313 2.452-2.452 2.711-8.86.454-11.238-1.149-1.21-1.293-1.968-.682-3.587 1.218-3.228.017-7.375-2.978-10.278-2.698-2.615-2.699-2.619-1.492-5.693 2.197-5.593-.411-11.791-5.933-14.098-2.518-1.052-2.644-1.292-2.188-4.144.62-3.881-1.155-8.221-4.321-10.562l-2.399-1.773 2.125-3.078c1.434-2.077 2.515-2.912 3.325-2.569 6.637 2.815 11.276.652 16.868-7.866 4.873-7.423 5.827-13.395 3.012-18.86l-1.321-2.563 7.169-10.441c4.421-6.441 8.064-10.905 9.506-11.651 7.803-4.035 6.369-16.809-2.204-19.638-5.805-1.916-13.83 2.716-13.83 7.982 0 2.116-9.671 16.119-11.083 16.048-.284-.015-4.295-5.865-8.912-13-10.095-15.601-22.487-33.005-32.024-44.979-4.78-6-7.322-9.949-7.981-12.395-2.005-7.446-8.218-15.221-13.153-16.46-2.581-.647-2.568-.805.445-5.557 9.048-14.267 22.219-22.698 44.981-28.794 31.988-8.567 40.036-25.799 23.071-49.397-5.316-7.393-6.048-9.422-4.902-13.575.819-2.964 5.509-7.817 7.556-7.817 8.774 0 18.397-9.352 19.375-18.831.999-9.677-2.025-12.099-7.639-6.119m-.689 11.424c-1.839 3.149-6.483 5.839-12.833 7.434-20.403 5.125-27.597 18.361-18.846 34.672 7.782 14.505 3.227 29.397-11.187 36.58-5.03 2.507-4.964 2.602-2.169-3.178 5.11-10.566 6.744-27.279 3.752-38.382-6.94-25.753-1.643-33.197 25.038-35.183 6.964-.518 15.708-2.498 16.469-3.729 1.215-1.965 1.009-.324-.224 1.786m-25.228 24.66c.101 4.455 2.06 8.595 8.17 17.266 9.019 12.798 5.845 26.336-7.479 31.903-3.506 1.465-3.502 1.489-.542-3.177 5.514-8.696 5.447-18.809-.198-30.034-4.334-8.616-4.841-12.767-2.103-17.198 2.103-3.403 2.045-3.436 2.152 1.24m-97.674 12.117c-1.34 11.318-6.957 15.552-21.452 16.173-15.894.682-26.291 3.932-26.291 8.22 0 2.905 1.907 3.226 7.902 1.33 8.766-2.773 24.098-4.64 24.098-2.934 0 6.285-10.61 11.783-25.501 13.214-9.415.905-11.299 1.618-11.299 4.276 0 2.982 1.686 3.842 5.711 2.914 7.683-1.772 9.05-.458 4.38 4.211-2.877 2.878-7.687 4.545-13.111 4.545h-3.112l.311-4.2c.903-12.224-13.85-16.907-20.029-6.357-3.215 5.49 1.705 7.721 6.295 2.854 3.759-3.985 8.565-1.23 7.218 4.136-2.64 10.521-23.958 13.052-28.931 3.435-2.57-4.969-.046-10.253 9.964-20.865C189.33 88.715 200.371 83.17 230.4 76.03c10.78-2.564 21.4-5.214 23.6-5.89 5.592-1.718 5.475-1.782 4.943 2.711m-95.118 33.107c.161.161-.794 1.793-2.122 3.627-13.162 18.169 13.146 37.507 31.444 23.114 2.788-2.193 3.363-1.563 4.45 4.883 1.092 6.476.154 10.808-2.524 11.658-.903.287-20.29-3.154-43.485-7.718l-41.855-8.236 1.733-3.085c7.17-12.76 20.803-22.371 34.894-24.601 3.994-.632 16.736-.371 17.465.358m-32.536 38.076c11.211 2.204 11.911 2.542 11.912 5.749.003 13.057 19.504 26.514 28.062 19.365 5.604-4.683 8.4-1.235 5.204 6.415-1.478 3.536-4.272 5.29-9.44 5.923-3.779.464-4.261.749-4.916 2.914-1.982 6.546-2.054 6.623-9.995 10.666-7.694 3.916-21.477 9.443-22.065 8.848-.171-.173-1.512-4.994-2.981-10.714l-2.67-10.4-3.6-1.765c-1.98-.971-3.887-1.877-4.238-2.013-.351-.136.639-2.698 2.2-5.693l2.838-5.445v-12.742c0-7.008.31-12.742.689-12.742.378 0 4.428.735 9 1.634m39.911 7.839c21.94 4.431 21.186 3.914 21.174 14.527-.009 7.501-1.875 11.899-7.631 17.985-6.035 6.382-7.578 4.068-3.133-4.698 6.824-13.456-2.312-25.253-13.153-16.985-5.918 4.514-16.317-2.316-18.424-12.102-.714-3.314-1.905-3.386 21.167 1.273m123.017 7.747c4.936 1.466 8.504 4.304 10.618 8.449 2.165 4.243 2.124 4.304-3.04 4.549-26.082 1.235-59.783 25.713-74.598 54.182-17.685 33.984-37.339 46.952-59.392 39.189-11.592-4.081-19.033-18.734-17.929-35.308.437-6.555 4.138-17.081 6.007-17.081 3.247 0 10.52 14.662 11.319 22.816 1.974 20.161 20.9 20.102 29.176-.09 1.245-3.039 3.525-8.549 5.065-12.243 2.98-7.145 2.88-9.032-.504-9.536-2.205-.328-3.98 2.571-8.238 13.453-5.336 13.638-7.58 16.8-11.924 16.8-10.37 0-8.974-14.906 3.311-35.346 4.697-7.816 4.725-8.17.912-11.519l-3-2.634 2-1.378c3.796-2.614 9.538-9.245 11.366-13.126 2.751-5.839 22.369-14.1 35.573-14.979 9.635-.642 10.274-.042 4.163 3.908-6.084 3.932-16.702 14.008-16.702 15.849 0 3.749 3.651 4.132 6.85.718 16.681-17.796 52.374-31.601 68.967-26.673M133.2 163.371c-4.502 1.583-5.771 4.095-3.163 6.26 1.952 1.619 8.676-.699 9.024-3.111.515-3.559-1.547-4.667-5.861-3.149m174.976 15.687c6.081 2.413 60.624 83.155 60.624 89.745 0 1.279-1.66 4.734-3.984 8.294-5.062 7.755-5.816 7.803-13.421.862-6.742-6.153-7.384-7.784-7.391-18.771-.007-12.696-10.285-25.603-26.099-32.773-9.662-4.381-16.613-11.085-22.665-21.86-3.426-6.1-6.84-6.482-6.84-.766 0 3.311-.116 3.458-5.035 6.368-2.77 1.639-9.79 6.551-15.6 10.917-12.069 9.068-16.851 11.554-24.411 12.689-10.492 1.576-11.669 7.871-1.271 6.798l4.177-.431.552 7.363c.32 4.267.145 11.763-.417 17.831-1.351 14.601.967 21.663 13.033 39.71l5.132 7.675-3.14 3.046c-1.727 1.675-6.803 7.505-11.28 12.957-7.578 9.228-8.156 9.752-8.378 7.6-.816-7.919-3.326-12.139-6.601-11.1-2.144.681-2.412 2.353-1.027 6.42.901 2.641 1.155 5.56.892 10.232l-.368 6.536-6.729 9.625c-3.701 5.294-6.989 9.794-7.307 10-.318.206-3.797-4.9-7.732-11.346-4.232-6.932-8.636-13.087-10.779-15.062-5.756-5.305-10.955-14.417-8.226-14.417.656 0 2.226-.87 3.49-1.934l2.298-1.933 1.909 3.597c2.243 4.229 8.515 10.67 10.39 10.67 3.75 0 4.274-4.526.818-7.081-2.975-2.2-5.921-6.767-7.272-11.277-.655-2.187-2.545-4.971-5.266-7.758-3.205-3.283-4.368-5.129-4.754-7.544-.593-3.707-2.614-5.269-5.098-3.94-3.012 1.612-.96 9.942 3.608 14.646 2.507 2.581 2.606 2.871 1.348 3.967-2.84 2.475-4.967 3.166-6.407 2.084-6.736-5.062-8.369-8.707-6.214-13.865 3.169-7.583-2.108-10.78-5.666-3.433l-1.616 3.336-3.052-6.175c-3.572-7.227-3.646-7.002 1.999-6.08 5.954.972 15.032-.355 21.119-3.088 5.857-2.63 11.429-2.74 18.143-.357 5.084 1.805 7.138 1.254 7.138-1.914 0-2.223-4.261-4.679-9.724-5.605l-2.924-.496 3.846-4.774c5.359-6.65 8.26-12.471 11.109-22.294 8.558-29.498 21.114-48.074 41.693-61.682 15.95-10.547 36.748-17.841 43.376-15.212m-134.562 12.201c.536 2.233 2.153 5.812 3.595 7.954l2.62 3.894-4.514 9.182c-5.227 10.631-4.771 10.252-7.206 5.988-2.844-4.979-8.008-10.206-12.695-12.851l-4.187-2.364 4.846-2.578c6.905-3.674 10.105-6.452 10.734-9.318.499-2.27 2.389-3.776 4.913-3.915.506-.028 1.359 1.776 1.894 4.008m34.986 5.605c-2.915 1.698-1.208 6.336 2.332 6.336 2.688 0 3.916-2.797 2.306-5.254-1.378-2.103-2.454-2.354-4.638-1.082M386.4 224.8c2.648 2.648.88 8-2.644 8-.574 0-4.23 4.68-8.125 10.4-8.105 11.902-7.222 11.112-8.868 7.928-1.612-3.117-1.787-2.743 5.949-12.676 4.167-5.351 6.351-8.825 6.081-9.675-1.205-3.796 4.701-6.883 7.607-3.977m-232.141 39.935c14.196 14.196 40.357 12.771 57.043-3.107 5.278-5.022 5.383-4.434.851 4.772-16.758 34.044-62.821 26.888-66.211-10.286l-.484-5.314 2.441 5.008c1.342 2.754 4.204 6.771 6.36 8.927M31.2 275.46c8.467 6.098 9.406 7.273 7.659 9.578-1.044 1.375-15.344-8.024-16.335-10.737-1.359-3.723 2.64-3.189 8.676 1.159m-4.645 9.993c7.653 5.863 7.739 5.966 6.512 7.837-1.43 2.183-.811 2.457-10.467-4.653-7.277-5.359-8.546-7.171-6.472-9.245 1.122-1.122.82-1.297 10.427 6.061m318.579-4.019l2.544 2.235-7.482 10.765c-4.115 5.921-7.783 11.281-8.152 11.911-.551.942-1.09.801-3.05-.8-1.309-1.07-2.944-2.305-3.634-2.745-1.053-.672.154-2.626 7.54-12.2 9.957-12.908 8.885-12.105 12.234-9.166m-68.278 5.766c.346.66 1.704 3.605 3.018 6.544 5.051 11.295 9.463 14.077 16.706 10.533 4.893-2.394 10.468-3.192 14.62-2.093l2.8.741-2.4 1.225c-1.32.675-4.265 1.437-6.545 1.694-4.59.518-9.445 2.69-11.779 5.271-2.503 2.767-5.479 2.179-8.668-1.715-9.2-11.23-14.697-24.643-9.696-23.659.724.142 1.599.799 1.944 1.459m70.481 14.924c1.953 1.768 1.847 3.08-.584 7.228-1.865 3.183-2.112 6.51-.499 6.719.3.039 2.466.13 4.813.203 7.311.228 8.72 4.739 2.733 8.753-5.126 3.436-4.548 5.794 1.87 7.626 4.316 1.232 6.284 3.426 5.583 6.222-.598 2.38-5.64 2.517-12.853.349l-3.2-.962-.069-7.331c-.078-8.185-1.545-12.614-5.778-17.434l-2.404-2.739 3.572-4.979c3.825-5.33 4.541-5.714 6.816-3.655m-129.909 3.359c-1.445 1.256-4.18 3.254-6.077 4.441-4.205 2.631-4.638 6.281-.797 6.725 6.242.72 16.499-10.159 11.899-12.621-2.094-1.12-2.044-1.135-5.025 1.455m107.171 4.546c2.921 2.046 3.899 6.836 2.268 11.107-3.164 8.285-11.699 11.362-16.667 6.009-7.545-8.13 5.347-23.456 14.399-17.116m12.253 11.673c2.029 3.976 2.767 10.297 1.727 14.792-1.501 6.492 5.347 10.187 20.221 10.911 3.681.179 4 .354 4 2.195 0 4.293-23.095.833-28.882-4.327l-1.876-1.673 1.731-5.771c1.586-5.286 1.645-6.207.705-10.937-1.577-7.935-.371-10.571 2.374-5.19" fill-rule="evenodd"/></symbol><symbol viewBox="0 0 100 78.581" id="footer-1-address" xmlns="http://www.w3.org/2000/svg"><path d="M8.938 0C6.071 0 3.866.967 2.324 2.9.783 4.833.012 7.252.012 10.156c0 2.342 1.024 4.881 3.07 7.619 2.042 2.733 4.215 4.881 6.523 6.443C19.99 31.53 32.252 40.128 43.943 48c1.134.666 2.203 1.168 3.207 1.505 1.005.338 1.933.506 2.788.506h.113c.854-.004 1.783-.172 2.787-.506 1.004-.333 2.072-.835 3.205-1.505 11.22-7.287 22.066-14.632 34.4-23.776 2.713-1.896 4.982-4.182 6.807-6.861 1.825-2.679 2.738-5.488 2.738-8.426l-.025-.006c0-2.462-.884-4.566-2.65-6.312C95.567.873 93.483 0 91.063 0zM0 25.343V69.65c-.004 2.462.869 4.567 2.619 6.312 1.754 1.746 3.858 2.62 6.313 2.62h82.125c2.462.004 4.566-.87 6.312-2.62 1.746-1.754 2.619-3.858 2.619-6.312V25.353C79.21 41.069 70.682 47.122 56.193 55.787c-2.195.912-4.241 1.369-6.136 1.369h-.114c-1.895 0-3.941-.457-6.136-1.369C29.696 47.981 15.239 36.54 0 25.343zm99.988.01l.012-.01h-.012z"/></symbol><symbol viewBox="0 0 100 100" id="footer-1-location" xmlns="http://www.w3.org/2000/svg"><path d="M50 0C22.381 0 0 22.387 0 50c0 27.619 22.388 50 50 50 27.619 0 50-22.388 50-50 0-27.619-22.388-50-50-50M9.375 50C9.375 27.563 27.563 9.375 50 9.375c10.7 0 20.431 4.144 27.688 10.9L37.5 37.5 20.275 77.688C13.512 70.431 9.375 60.7 9.375 50m47.769 7.144l-25 10.718 10.718-24.999 14.294 14.293m-7.143 33.481a40.462 40.462 0 01-27.688-10.9l40.188-17.224 17.224-40.188c6.763 7.256 10.9 16.988 10.9 27.688 0 22.437-18.187 40.624-40.624 40.624"/></symbol><symbol viewBox="0 0 100 100" id="footer-1-phone" xmlns="http://www.w3.org/2000/svg"><path d="M6.555 3.73c4.003-4 16.095-4.669 16.189-2.55.088 2.112 10.895 25.589 10.989 27.702.094 2.119-7.117 9.332-9.229 11.444-2.092 2.088 14.116 20.408 14.423 20.752.344.306 18.664 16.514 20.75 14.42 2.111-2.113 9.329-9.326 11.44-9.232 2.118.087 25.593 10.895 27.705 10.988 2.117.088 1.447 12.183-2.55 16.189-3.421 3.419-21.139 15.839-51.951-6.338-3.377-1.944-8.727-6.4-16.847-14.514 0-.006-.012-.012-.019-.012-.006-.013-.012-.013-.018-.019a.17.17 0 01-.019-.019c0-.006-.013-.012-.013-.012-8.107-8.113-12.593-13.47-14.51-16.845C-9.283 24.869 3.14 7.149 6.555 3.73"/></symbol><symbol viewBox="0 0 100 100" id="footer-1-rollover" xmlns="http://www.w3.org/2000/svg"><path d="M16.301 0C7.322 0 0 7.322 0 16.301v67.398C0 92.678 7.322 100 16.301 100h67.398C92.678 100 100 92.678 100 83.699V16.301C100 7.322 92.678 0 83.699 0H16.301zm0 6h67.398C89.457 6 94 10.543 94 16.301v67.398c0 4.521-2.807 8.282-6.797 9.694-3.006.674-4.884-.093-6.465-2.784l-16.744-32.99c-.995-1.989-3.978-1.989-4.973 0l-5.47 10.942c-.995 1.989-3.98 1.989-4.975 0L32.66 36.73c-.995-1.989-3.978-1.989-4.972 0L6 80.236V16.301C6 10.543 10.543 6 16.301 6zm56.553 10.648a9.285 9.285 0 10-.001 18.57 9.285 9.285 0 00.001-18.57z"/></symbol><symbol viewBox="0 0 100 100" id="footer-1-rollover_" xmlns="http://www.w3.org/2000/svg"><path fill="#737373" d="M16.301 0C7.322 0 0 7.322 0 16.301v67.398C0 92.678 7.322 100 16.301 100h67.398C92.678 100 100 92.678 100 83.699V16.301C100 7.322 92.678 0 83.699 0H16.301zm0 6h67.398C89.457 6 94 10.543 94 16.301v67.398c0 4.521-2.807 8.282-6.797 9.694-3.006.674-4.884-.093-6.465-2.784l-16.744-32.99c-.995-1.989-3.978-1.989-4.973 0l-5.47 10.942c-.995 1.989-3.98 1.989-4.975 0L32.66 36.73c-.995-1.989-3.978-1.989-4.972 0L6 80.236V16.301C6 10.543 10.543 6 16.301 6zm56.553 10.648a9.285 9.285 0 10-.001 18.57 9.285 9.285 0 00.001-18.57z"/></symbol><symbol viewBox="0 0 100 78.581" id="footer-2-address" xmlns="http://www.w3.org/2000/svg"><path d="M8.938 0C6.071 0 3.866.967 2.324 2.9.783 4.833.012 7.252.012 10.156c0 2.342 1.024 4.881 3.07 7.619 2.042 2.733 4.215 4.881 6.523 6.443C19.99 31.53 32.252 40.128 43.943 48c1.134.666 2.203 1.168 3.207 1.505 1.005.338 1.933.506 2.788.506h.113c.854-.004 1.783-.172 2.787-.506 1.004-.333 2.072-.835 3.205-1.505 11.22-7.287 22.066-14.632 34.4-23.776 2.713-1.896 4.982-4.182 6.807-6.861 1.825-2.679 2.738-5.488 2.738-8.426l-.025-.006c0-2.462-.884-4.566-2.65-6.312C95.567.873 93.483 0 91.063 0zM0 25.343V69.65c-.004 2.462.869 4.567 2.619 6.312 1.754 1.746 3.858 2.62 6.313 2.62h82.125c2.462.004 4.566-.87 6.312-2.62 1.746-1.754 2.619-3.858 2.619-6.312V25.353C79.21 41.069 70.682 47.122 56.193 55.787c-2.195.912-4.241 1.369-6.136 1.369h-.114c-1.895 0-3.941-.457-6.136-1.369C29.696 47.981 15.239 36.54 0 25.343zm99.988.01l.012-.01h-.012z"/></symbol><symbol viewBox="0 0 100 100" id="footer-2-facebook" xmlns="http://www.w3.org/2000/svg"><path d="M100 0H0v100h49.893V56.25H37.42v-12.5h12.473v-9.375c0-8.628 6.982-15.625 15.591-15.625h15.592v12.5H65.484a3.123 3.123 0 00-3.118 3.125v9.375h17.151l-3.119 12.5H62.366V100H100V0"/></symbol><symbol viewBox="0 0 100 100" id="footer-2-google+" xmlns="http://www.w3.org/2000/svg"><path d="M23.077 55.167c8.967.268 14.983-9.044 13.436-20.796-1.547-11.753-10.077-21.186-19.044-21.455C8.5 12.651 2.487 21.644 4.034 33.4 5.58 45.153 14.107 54.898 23.077 55.167M100 25.009l-.017-25L.006 0S0 7.376 0 16.246c5.689-5.013 13.677-9.223 21.82-9.223h34.819l-7.791 6.596H37.807c7.323 2.809 11.225 11.328 11.225 20.068 0 7.339-4.077 13.654-9.834 18.143-5.617 4.379-6.683 6.215-6.683 9.939 0 3.178 6.019 8.584 9.163 10.807 9.197 6.489 12.175 12.517 12.175 22.578 0 1.601-.175 3.264-.568 4.837 15.565.009 46.695.005 46.695.005l.017-68.738H81.174v18.73h-6.237v-18.73H56.224v-6.243h18.713V6.286h6.237v18.729zM18.209 74.754c2.105 0 4.035-.056 6.038-.056-2.645-2.569-4.741-5.715-4.741-9.595 0-2.304.736-4.52 1.768-6.49a45.418 45.418 0 01-3.228.097c-7.248 0-13.401-2.348-17.952-6.228C0 61.236 0 69.99.021 78.743c5.209-2.475 11.467-3.985 18.191-3.985zm26.285 18.23c-1.469-5.737-6.671-8.581-13.926-13.613a29.115 29.115 0 00-8.664-1.386C13.169 77.892 4.601 81.843.01 87.056 0 94.767.025 100 .025 100l44.594-.012c.178-1.086.299-2.268.299-3.42 0-1.224-.15-2.419-.427-3.584z"/></symbol><symbol viewBox="0 0 100 100" id="footer-2-linkedin" xmlns="http://www.w3.org/2000/svg"><path d="M0 0v100h100V0M37.5 81.25H25V37.5h12.5v43.75m-6.25-50A6.248 6.248 0 0125 25a6.248 6.248 0 016.25-6.25A6.248 6.248 0 0137.5 25a6.248 6.248 0 01-6.25 6.25m50 50h-12.5v-25A6.248 6.248 0 0062.5 50a6.248 6.248 0 00-6.25 6.25v25h-12.5V37.5h12.5v7.759c2.578-3.54 6.519-7.759 10.938-7.759 7.765 0 14.062 6.997 14.062 15.625V81.25"/></symbol><symbol viewBox="0 0 100 100" id="footer-2-location" xmlns="http://www.w3.org/2000/svg"><path d="M50 0C22.381 0 0 22.387 0 50c0 27.619 22.388 50 50 50 27.619 0 50-22.388 50-50 0-27.619-22.388-50-50-50M9.375 50C9.375 27.563 27.563 9.375 50 9.375c10.7 0 20.431 4.144 27.688 10.9L37.5 37.5 20.275 77.688C13.512 70.431 9.375 60.7 9.375 50m47.769 7.144l-25 10.718 10.718-24.999 14.294 14.293m-7.143 33.481a40.462 40.462 0 01-27.688-10.9l40.188-17.224 17.224-40.188c6.763 7.256 10.9 16.988 10.9 27.688 0 22.437-18.187 40.624-40.624 40.624"/></symbol><symbol viewBox="0 0 100 100" id="footer-2-phone" xmlns="http://www.w3.org/2000/svg"><path d="M6.555 3.73c4.003-4 16.095-4.669 16.189-2.55.088 2.112 10.895 25.589 10.989 27.702.094 2.119-7.117 9.332-9.229 11.444-2.092 2.088 14.116 20.408 14.423 20.752.344.306 18.664 16.514 20.75 14.42 2.111-2.113 9.329-9.326 11.44-9.232 2.118.087 25.593 10.895 27.705 10.988 2.117.088 1.447 12.183-2.55 16.189-3.421 3.419-21.139 15.839-51.951-6.338-3.377-1.944-8.727-6.4-16.847-14.514 0-.006-.012-.012-.019-.012-.006-.013-.012-.013-.018-.019a.17.17 0 01-.019-.019c0-.006-.013-.012-.013-.012-8.107-8.113-12.593-13.47-14.51-16.845C-9.283 24.869 3.14 7.149 6.555 3.73"/></symbol><symbol viewBox="0 0 100 100" id="footer-2-pinterest" xmlns="http://www.w3.org/2000/svg"><path d="M0 0v100h100c-.108-26.239-.004-100-.004-100m-44.01 78.531c-5.065 0-9.828-2.631-11.459-5.74 0 0-2.506 9.547-3.115 11.884-1.129 4.344-4.175 9.788-6.216 13.109l-3.415-1.209c-.438-3.956-.832-10.025.171-14.344.91-3.903 5.863-24.853 5.863-24.853s-1.497-2.994-1.497-7.422c0-6.953 4.031-12.143 9.046-12.143 4.266 0 6.328 3.203 6.328 7.043 0 4.291-2.731 10.703-4.14 16.647-1.178 4.978 2.497 9.038 7.403 9.038 8.887 0 15.718-9.372 15.718-22.897 0-11.972-8.603-20.341-20.884-20.341-14.224 0-22.577 10.672-22.577 21.697 0 4.297 1.656 8.906 3.722 11.409.409.494.469.929.347 1.435-.378 1.581-1.222 4.978-1.388 5.672-.219.915-.725 1.109-1.672.668-6.243-2.906-10.149-12.037-10.149-19.368 0-15.782 11.459-30.257 33.036-30.257 17.343 0 30.824 12.36 30.824 28.879 0 17.231-10.865 31.099-25.943 31.099z"/></symbol><symbol viewBox="0 0 100 100" id="footer-2-twitter" xmlns="http://www.w3.org/2000/svg"><path d="M0 0v100h100V0M74.854 37.253c.025.55.037 1.103.037 1.659 0 16.944-12.895 36.485-36.479 36.485a36.266 36.266 0 01-19.653-5.763 25.97 25.97 0 003.059.182c6.005 0 11.536-2.05 15.923-5.491-5.612-.103-10.346-3.809-11.977-8.903a12.8 12.8 0 005.79-.219c-5.865-1.178-10.283-6.359-10.283-12.562v-.163a12.752 12.752 0 005.806 1.603 12.816 12.816 0 01-5.703-10.672c0-2.35.631-4.553 1.737-6.447 6.325 7.757 15.779 12.863 26.425 13.397a12.841 12.841 0 01-.332-2.921c0-7.082 5.74-12.822 12.82-12.822 3.687 0 7.021 1.556 9.358 4.05a25.61 25.61 0 008.143-3.113 12.86 12.86 0 01-5.637 7.094c2.594-.309 5.065-1 7.365-2.019a26.061 26.061 0 01-6.396 6.638z"/></symbol><symbol viewBox="0 0 57.62 100" id="gallery-1__modal-nav-left" xmlns="http://www.w3.org/2000/svg"><path d="M57.619 4.647c0-1.279-.607-2.41-1.477-3.24-1.968-1.876-5.122-1.876-7.093 0L1.478 46.76C.604 47.592 0 48.72 0 50c0 1.281.606 2.408 1.478 3.24l47.571 45.353c1.971 1.876 5.123 1.876 7.093 0 1.83-1.744 1.698-4.254 0-6.338C42.537 75.562 34.287 65.726 22.105 50 34.249 34.791 44.92 21.647 56.532 7.398c.764-.937 1.088-1.518 1.088-2.751z"/></symbol><symbol viewBox="0 0 57.62 100" id="gallery-1__modal-nav-right" xmlns="http://www.w3.org/2000/svg"><path d="M.001 4.647c0-1.279.607-2.41 1.477-3.24 1.968-1.876 5.122-1.876 7.093 0L56.142 46.76c.874.832 1.478 1.96 1.478 3.24 0 1.281-.606 2.408-1.478 3.24L8.571 98.593c-1.971 1.876-5.123 1.876-7.093 0-1.83-1.744-1.698-4.254 0-6.338C15.083 75.562 23.333 65.726 35.515 50 23.371 34.791 12.7 21.647 1.088 7.398.324 6.461 0 5.88 0 4.647z"/></symbol><symbol viewBox="0 0 100 100" id="header-1-logo" xmlns="http://www.w3.org/2000/svg"><path d="M16.301 0C7.322 0 0 7.322 0 16.301v67.398C0 92.678 7.322 100 16.301 100h67.398C92.678 100 100 92.678 100 83.699V16.301C100 7.322 92.678 0 83.699 0H16.301zm0 6h67.398C89.457 6 94 10.543 94 16.301v67.398c0 4.521-2.807 8.282-6.797 9.694-3.006.674-4.884-.093-6.465-2.784l-16.744-32.99c-.995-1.989-3.978-1.989-4.973 0l-5.47 10.942c-.995 1.989-3.98 1.989-4.975 0L32.66 36.73c-.995-1.989-3.978-1.989-4.972 0L6 80.236V16.301C6 10.543 10.543 6 16.301 6zm56.553 10.648a9.285 9.285 0 10-.001 18.57 9.285 9.285 0 00.001-18.57z"/></symbol><symbol viewBox="0 0 93.75 66.177" id="header-1-nav-button" xmlns="http://www.w3.org/2000/svg"><path d="M0 0v5.516h93.75V0zm0 30.33v5.516h93.75V30.33zm0 30.332v5.514h93.75v-5.514z"/></symbol><symbol viewBox="0 0 100 100" id="header-2-logo" xmlns="http://www.w3.org/2000/svg"><path d="M16.301 0C7.322 0 0 7.322 0 16.301v67.398C0 92.678 7.322 100 16.301 100h67.398C92.678 100 100 92.678 100 83.699V16.301C100 7.322 92.678 0 83.699 0H16.301zm0 6h67.398C89.457 6 94 10.543 94 16.301v67.398c0 4.521-2.807 8.282-6.797 9.694-3.006.674-4.884-.093-6.465-2.784l-16.744-32.99c-.995-1.989-3.978-1.989-4.973 0l-5.47 10.942c-.995 1.989-3.98 1.989-4.975 0L32.66 36.73c-.995-1.989-3.978-1.989-4.972 0L6 80.236V16.301C6 10.543 10.543 6 16.301 6zm56.553 10.648a9.285 9.285 0 10-.001 18.57 9.285 9.285 0 00.001-18.57z"/></symbol><symbol viewBox="0 0 100 100" id="header-3-logo" xmlns="http://www.w3.org/2000/svg"><path d="M16.301 0C7.322 0 0 7.322 0 16.301v67.398C0 92.678 7.322 100 16.301 100h67.398C92.678 100 100 92.678 100 83.699V16.301C100 7.322 92.678 0 83.699 0H16.301zm0 6h67.398C89.457 6 94 10.543 94 16.301v67.398c0 4.521-2.807 8.282-6.797 9.694-3.006.674-4.884-.093-6.465-2.784l-16.744-32.99c-.995-1.989-3.978-1.989-4.973 0l-5.47 10.942c-.995 1.989-3.98 1.989-4.975 0L32.66 36.73c-.995-1.989-3.978-1.989-4.972 0L6 80.236V16.301C6 10.543 10.543 6 16.301 6zm56.553 10.648a9.285 9.285 0 10-.001 18.57 9.285 9.285 0 00.001-18.57z"/></symbol><symbol viewBox="0 0 100 100" id="image" xmlns="http://www.w3.org/2000/svg"><path d="M16.301 0C7.322 0 0 7.322 0 16.301v67.398C0 92.678 7.322 100 16.301 100h67.398C92.678 100 100 92.678 100 83.699V16.301C100 7.322 92.678 0 83.699 0H16.301zm0 6h67.398C89.457 6 94 10.543 94 16.301v67.398c0 4.521-2.807 8.282-6.797 9.694-3.006.674-4.884-.093-6.465-2.784l-16.744-32.99c-.995-1.989-3.978-1.989-4.973 0l-5.47 10.942c-.995 1.989-3.98 1.989-4.975 0L32.66 36.73c-.995-1.989-3.978-1.989-4.972 0L6 80.236V16.301C6 10.543 10.543 6 16.301 6zm56.553 10.648a9.285 9.285 0 10-.001 18.57 9.285 9.285 0 00.001-18.57z"/></symbol><symbol viewBox="0 0 100 60" id="nav-1-fill" xmlns="http://www.w3.org/2000/svg"><path d="M4.647 1.191c-1.279 0-2.41.607-3.24 1.477-1.876 1.968-1.876 5.122 0 7.093L46.76 57.332c.832.874 1.96 1.478 3.24 1.478 1.281 0 2.408-.606 3.24-1.478L98.593 9.761c1.876-1.971 1.876-5.123 0-7.093-1.744-1.83-4.254-1.698-6.338 0C75.562 16.273 65.726 24.523 50 36.705 34.791 24.561 21.647 13.89 7.398 2.278 6.461 1.514 5.88 1.19 4.647 1.19z"/></symbol><symbol viewBox="0 0 100 60" id="nav-1-stroke" xmlns="http://www.w3.org/2000/svg"><path d="M4.539.705v.269c-1.104.271-2.109.77-2.841 1.537-2.264 2.374-2.264 6.164-.001 8.54h.001l44.291 46.438c.991 1.041 2.394 1.806 4.011 1.806 1.62 0 3.021-.768 4.011-1.806l44.291-46.438h.002c2.262-2.376 2.261-6.165-.002-8.54C97.247 1.404 95.857.835 94.466.856c-1.391.021-2.758.591-3.942 1.556-16.016 13.047-25.648 21.096-40.518 32.633C35.485 23.449 22.809 13.167 9.137 2.031 8.164 1.237 7.119.705 5.71.705zM5.71 3.049c.999 0 1.091.1 1.947.798C21.573 15.183 34.413 25.602 49.27 37.46l.719.576.728-.564C66.09 25.568 75.709 17.503 92.006 4.227c.85-.693 1.725-1.018 2.494-1.03.769-.011 1.458.249 2.106.929 1.402 1.47 1.4 3.836-.002 5.308h.002L52.316 55.87c-.634.665-1.434 1.079-2.316 1.079-.882 0-1.68-.413-2.313-1.079h-.002L3.394 9.434h.002c-1.401-1.472-1.403-3.84-.002-5.308.631-.662 1.437-1.079 2.316-1.079z"/></symbol></svg>