<?xml version="1.0" encoding="utf-8"?><svg width="300" height="200" viewBox="0 0 300 200" xmlns="http://www.w3.org/2000/svg" xmlns:xlink="http://www.w3.org/1999/xlink"><view id="form-1-field-invalid" viewBox="0 0 100 100"/><svg viewBox="0 0 100 100" width="100" height="100" xmlns="http://www.w3.org/2000/svg"><path d="M4.483 25l-2.477 2.477C9.509 34.982 17.01 42.49 24.51 49.997 17.008 57.496 9.5 64.991 2 72.492l2.477 2.477c7.503-7.5 15.007-14.998 22.511-22.497C34.493 59.981 41.993 67.493 49.499 75l2.477-2.477c-7.505-7.507-15.008-15.016-22.51-22.525C36.975 42.49 44.49 34.986 52 27.478L49.523 25c-7.51 7.507-15.023 15.013-22.535 22.519C19.485 40.014 11.987 32.504 4.483 25z" style="fill:#ea7474"/></svg><view id="form-1-field-required" viewBox="100 0 100 100"/><svg viewBox="0 0 100 100" width="100" height="100" x="100" xmlns="http://www.w3.org/2000/svg"><path d="M18.324 17.449c-1.187.825-2.376 1.649-3.563 2.477-1.408-2.135-2.815-4.268-4.225-6.403-.059.043-.02.003-.061.062-1.437 2.112-2.877 4.228-4.317 6.341-1.155-.835-2.314-1.674-3.472-2.508.031-.03.061-.058.092-.09 1.548-2.013 3.099-4.024 4.648-6.037v-.032C4.953 10.586 2.476 9.913 0 9.236c.443-1.375.885-2.758 1.329-4.135 2.436.877 4.87 1.752 7.305 2.626L8.272 0h4.376c-.108 2.577-.219 5.154-.33 7.727 2.443-.863 4.891-1.73 7.333-2.595l1.301 4.104c-2.477.687-4.953 1.372-7.429 2.055 1.601 2.051 3.203 4.107 4.801 6.158z" style="fill:#999"/></svg><view id="form-1-field-valid" viewBox="0 100 100 100"/><svg viewBox="0 0 100 100" width="100" height="100" y="100" xmlns="http://www.w3.org/2000/svg"><path d="M3 52.658l13.577 13.577 32.471-32.471" style="fill:none;stroke:#4bbf49;stroke-width:3.5"/></svg><view id="gallery-1__modal-nav--pause" viewBox="100 100 100 100"/><svg viewBox="0 0 100 100" width="100" height="100" x="100" y="100" xmlns="http://www.w3.org/2000/svg"><path d="M22.382 0a7.655 7.655 0 00-7.672 7.672v84.657A7.655 7.655 0 0022.382 100a7.655 7.655 0 007.672-7.671V7.672A7.655 7.655 0 0022.382 0zm55.236 0a7.655 7.655 0 00-7.672 7.672v84.657A7.655 7.655 0 0077.618 100a7.655 7.655 0 007.672-7.671V7.672A7.655 7.655 0 0077.618 0z" style="fill:#fff"/></svg><view id="gallery-1__modal-nav--play" viewBox="200 0 100 100"/><svg viewBox="0 0 100 100" width="100" height="100" x="200" xmlns="http://www.w3.org/2000/svg"><path d="M24.38 99.025l72.438-43.526c4.243-2.514 4.243-8.642 0-11.156L24.38.974c-4.4-2.671-9.9.471-9.9 5.5v87.05c0 5.029 5.5 8.172 9.9 5.5z" style="fill:#fff"/></svg></svg>