<svg id="svg" version="1.1" xmlns="http://www.w3.org/2000/svg" xmlns:xlink="http://www.w3.org/1999/xlink" width="400" height="400" viewBox="0, 0, 400,400"><g id="svgg"><path id="path0" d="M382.534 24.650 C 377.364 30.158,376.582 30.434,362.486 31.704 C 334.921 34.189,326.771 45.073,333.213 70.800 C 339.252 94.922,332.695 115.225,315.645 125.200 C 308.881 129.157,298.266 139.641,294.000 146.578 L 290.800 151.781 282.400 152.220 C 272.968 152.713,262.939 155.293,255.129 159.236 C 250.885 161.378,249.992 161.562,247.367 160.833 C 245.735 160.380,243.441 160.007,242.269 160.004 C 240.293 160.000,240.518 159.638,245.387 155.000 C 250.844 149.802,255.468 143.203,261.600 131.859 C 271.790 113.011,287.231 104.549,306.584 107.210 C 319.587 108.997,324.340 108.825,324.661 106.556 C 325.027 103.980,323.445 102.400,320.502 102.400 C 319.126 102.400,315.178 101.860,311.730 101.200 C 286.633 96.397,264.343 108.696,253.005 133.600 C 247.107 146.557,235.280 157.572,224.939 159.740 C 219.682 160.842,205.465 165.644,201.554 167.638 L 199.509 168.682 198.551 162.141 L 197.594 155.600 199.620 154.117 C 203.834 151.031,205.199 144.933,203.786 135.505 L 203.173 131.410 207.386 130.873 C 216.107 129.763,223.704 124.188,225.750 117.396 C 226.514 114.863,227.139 114.263,229.743 113.562 C 240.131 110.764,249.600 102.608,249.600 96.456 C 249.600 95.792,251.490 94.039,253.800 92.560 C 261.047 87.921,265.600 78.726,265.600 68.729 C 265.600 63.498,263.549 60.183,260.938 61.196 C 258.522 62.133,235.823 67.911,224.800 70.395 C 201.478 75.649,187.786 82.284,174.607 94.716 C 162.399 106.232,165.041 96.693,177.600 83.907 C 187.616 73.711,195.854 69.440,223.727 59.997 C 242.426 53.661,243.200 53.507,243.200 56.105 C 243.200 58.523,246.091 59.509,247.893 57.707 C 249.852 55.748,249.408 49.071,247.191 47.128 C 245.620 45.751,203.970 58.765,194.224 63.678 C 181.102 70.293,163.212 87.499,159.559 97.019 C 159.240 97.850,156.999 98.302,151.360 98.670 C 129.793 100.077,114.461 110.071,104.254 129.375 C 100.061 137.305,100.270 137.559,113.340 140.420 C 115.047 140.793,115.077 141.048,114.940 153.800 L 114.800 166.800 110.866 173.498 C 106.215 181.419,106.318 181.838,113.634 184.814 L 118.732 186.887 121.593 198.374 C 125.051 212.252,125.056 212.257,132.985 209.693 C 136.183 208.659,139.263 207.682,139.828 207.521 C 140.760 207.256,148.851 208.679,149.452 209.214 C 149.591 209.337,148.643 211.545,147.346 214.119 C 143.951 220.859,140.997 230.809,139.978 238.942 C 139.018 246.608,138.765 247.544,135.638 254.993 C 132.420 262.660,131.492 270.917,132.767 280.550 L 133.825 288.541 130.218 296.471 C 128.234 300.832,126.018 306.200,125.293 308.400 C 123.224 314.686,123.518 314.566,116.366 312.035 C 112.846 310.790,104.393 308.817,97.583 307.652 C 72.565 303.372,70.763 302.595,70.222 295.853 C 69.626 288.423,68.279 286.534,57.233 277.626 C 46.159 268.697,44.098 267.942,41.980 272.039 L 40.718 274.478 37.359 271.962 C 26.993 264.194,23.610 263.375,19.234 267.568 C 17.895 268.850,16.800 270.328,16.800 270.853 C 16.800 271.377,15.692 272.265,14.338 272.826 C 11.297 274.085,9.507 276.719,8.733 281.069 C 8.407 282.901,7.559 285.964,6.848 287.876 C 4.228 294.922,6.305 298.171,20.975 309.980 C 34.143 320.580,42.777 324.657,54.193 325.666 C 63.324 326.472,64.474 326.977,86.656 339.888 C 137.407 369.429,140.063 370.110,148.483 355.753 C 158.644 338.429,167.266 322.075,167.048 320.541 C 166.455 316.378,161.931 317.790,159.324 322.952 C 153.867 333.758,141.413 354.938,139.540 356.600 C 135.586 360.108,130.349 357.771,91.115 334.987 C 65.228 319.955,66.178 320.363,54.447 319.225 C 43.322 318.145,34.323 313.263,19.339 300.177 C 7.693 290.007,9.567 287.071,21.972 296.052 C 33.056 304.077,33.249 304.078,38.601 296.083 C 43.883 288.194,46.173 288.550,45.784 297.200 C 45.545 302.512,47.097 306.047,50.708 308.413 C 55.157 311.329,57.933 306.084,53.923 302.339 C 51.812 300.367,51.574 296.775,53.208 291.500 C 53.629 290.141,53.088 289.339,50.513 287.500 C 47.193 285.129,45.600 282.685,45.600 279.962 C 45.600 277.452,46.856 278.055,54.809 284.387 C 63.626 291.406,63.640 291.428,64.259 299.172 C 64.945 307.760,68.102 309.458,90.400 313.226 C 111.709 316.828,118.089 318.796,125.656 324.104 C 132.995 329.252,138.747 325.797,131.738 320.451 L 128.984 318.350 131.718 310.975 C 133.222 306.919,135.563 301.260,136.920 298.400 C 140.577 290.692,140.896 288.553,139.547 280.800 C 137.737 270.396,139.266 259.981,141.543 267.200 C 144.484 276.521,149.438 283.285,157.118 288.463 C 160.504 290.745,161.338 291.877,163.248 296.787 C 167.495 307.704,175.938 319.922,182.264 324.305 C 184.418 325.799,185.849 327.564,186.462 329.485 C 188.321 335.309,192.360 341.769,196.521 345.571 C 199.610 348.395,203.089 353.308,209.234 363.526 C 220.640 382.492,219.781 382.274,228.967 368.521 C 240.907 350.646,253.364 334.527,265.483 321.272 C 273.321 312.699,273.249 313.913,266.514 303.820 C 258.414 291.682,254.950 285.104,255.502 282.907 C 256.207 280.095,262.923 270.205,270.785 260.400 C 283.329 244.756,289.855 226.512,282.608 227.346 C 280.619 227.576,280.206 228.218,278.330 234.000 C 275.636 242.304,272.993 247.309,268.249 253.090 C 264.876 257.200,257.571 266.911,253.406 272.822 L 252.012 274.800 252.576 272.400 C 252.887 271.080,253.154 262.910,253.170 254.243 L 253.200 238.487 256.924 236.742 C 258.972 235.783,263.652 232.681,267.324 229.849 C 276.000 223.158,290.267 213.600,291.579 213.600 C 292.144 213.600,294.137 215.586,296.010 218.013 C 300.185 223.424,307.481 229.055,314.400 232.206 C 322.718 235.994,333.383 245.368,336.749 251.849 C 337.280 252.872,337.846 258.055,338.015 263.449 L 338.322 273.200 328.684 285.727 L 319.047 298.254 316.123 296.976 C 311.601 294.998,301.526 295.289,295.681 297.566 L 290.961 299.404 289.479 297.502 C 284.076 290.568,282.905 284.547,286.883 284.159 C 289.400 283.912,290.102 284.435,294.600 289.903 C 296.929 292.734,299.760 292.269,300.428 288.947 C 301.345 284.380,302.062 282.952,303.749 282.332 C 306.124 281.459,309.309 284.034,310.031 287.410 C 311.194 292.850,313.427 293.348,317.603 289.096 C 319.172 287.499,321.703 285.789,323.228 285.296 C 325.380 284.600,326.056 283.909,326.252 282.207 C 326.656 278.701,323.636 277.778,318.782 279.926 L 314.962 281.616 313.832 280.003 C 310.661 275.476,302.497 274.575,298.228 278.282 L 295.600 280.563 293.200 279.086 C 289.985 277.107,283.974 277.117,281.518 279.105 C 280.071 280.277,279.268 280.432,277.891 279.805 C 268.622 275.582,263.656 286.848,269.528 298.776 C 277.972 315.928,287.944 323.377,295.282 318.013 C 303.030 312.349,303.728 312.107,302.422 315.541 C 296.867 330.152,313.735 342.590,326.010 332.935 C 329.099 330.506,329.259 331.122,327.104 337.130 C 323.655 346.748,326.659 350.751,340.719 355.270 C 353.224 359.289,363.860 359.413,367.689 355.583 C 370.141 353.131,370.400 346.723,368.143 344.345 C 366.994 343.135,366.850 342.377,367.461 340.758 C 368.679 337.530,367.478 333.383,364.483 330.480 C 361.785 327.865,361.784 327.861,362.991 324.787 C 365.188 319.194,362.580 312.996,357.058 310.689 C 354.540 309.637,354.414 309.397,354.870 306.545 C 355.490 302.664,353.715 298.324,350.549 295.983 L 348.150 294.210 350.275 291.132 C 351.709 289.055,352.790 288.220,353.600 288.563 C 360.237 291.378,364.876 289.215,370.468 280.697 C 375.341 273.274,376.295 267.302,373.480 261.837 L 372.159 259.274 379.328 248.833 C 383.749 242.392,387.392 237.928,388.834 237.182 C 396.637 233.147,395.203 220.373,386.630 217.544 C 380.825 215.628,372.800 220.260,372.800 225.526 C 372.800 227.642,363.129 241.645,361.717 241.574 C 361.433 241.559,357.422 235.709,352.805 228.574 C 342.710 212.973,330.318 195.569,320.781 183.595 C 316.001 177.595,313.459 173.646,312.800 171.200 C 310.795 163.754,304.582 155.979,299.647 154.740 C 297.066 154.093,297.079 153.935,300.092 149.183 C 309.140 134.916,322.311 126.485,345.073 120.389 C 377.061 111.822,385.109 94.590,368.144 70.992 C 362.828 63.599,362.096 61.570,363.242 57.417 C 364.061 54.453,368.751 49.600,370.798 49.600 C 379.572 49.600,389.195 40.248,390.173 30.769 C 391.172 21.092,388.148 18.670,382.534 24.650 M381.845 36.074 C 380.006 39.223,375.362 41.913,369.012 43.508 C 348.609 48.633,341.415 61.869,350.166 78.180 C 357.948 92.685,353.393 107.577,338.979 114.760 C 333.949 117.267,334.015 117.362,336.810 111.582 C 341.920 101.016,343.554 84.303,340.562 73.200 C 333.622 47.447,338.919 40.003,365.600 38.017 C 372.564 37.499,381.308 35.519,382.069 34.288 C 383.284 32.323,383.078 33.964,381.845 36.074 M356.617 60.734 C 356.718 65.189,358.677 69.329,364.787 78.000 C 373.806 90.798,370.632 104.336,357.308 109.903 C 353.802 111.368,353.806 111.392,356.766 106.726 C 362.280 98.030,362.213 87.917,356.568 76.692 C 352.234 68.076,351.727 63.925,354.465 59.494 C 356.568 56.091,356.510 56.058,356.617 60.734 M258.943 72.851 C 257.603 84.169,251.986 88.403,237.491 89.024 C 221.597 89.706,211.200 92.956,211.200 97.244 C 211.200 100.149,213.107 100.470,219.102 98.574 C 227.868 95.801,243.200 93.934,243.200 95.640 C 243.200 101.925,232.590 107.423,217.699 108.854 C 208.284 109.759,206.400 110.472,206.400 113.130 C 206.400 116.112,208.086 116.972,212.111 116.044 C 219.794 114.272,221.161 115.586,216.491 120.255 C 213.614 123.133,208.804 124.800,203.380 124.800 L 200.268 124.800 200.579 120.600 C 201.482 108.376,186.729 103.693,180.550 114.243 C 177.335 119.733,182.255 121.964,186.845 117.097 C 190.604 113.112,195.410 115.867,194.063 121.233 C 191.423 131.754,170.105 134.285,165.132 124.668 C 162.562 119.699,165.086 114.415,175.096 103.803 C 189.330 88.715,200.371 83.170,230.400 76.030 C 241.180 73.466,251.800 70.816,254.000 70.140 C 259.592 68.422,259.475 68.358,258.943 72.851 M163.825 105.958 C 163.986 106.119,163.031 107.751,161.703 109.585 C 148.541 127.754,174.849 147.092,193.147 132.699 C 195.935 130.506,196.510 131.136,197.597 137.582 C 198.689 144.058,197.751 148.390,195.073 149.240 C 194.170 149.527,174.783 146.086,151.588 141.522 L 109.733 133.286 111.466 130.201 C 118.636 117.441,132.269 107.830,146.360 105.600 C 150.354 104.968,163.096 105.229,163.825 105.958 M131.289 144.034 C 142.500 146.238,143.200 146.576,143.201 149.783 C 143.204 162.840,162.705 176.297,171.263 169.148 C 176.867 164.465,179.663 167.913,176.467 175.563 C 174.989 179.099,172.195 180.853,167.027 181.486 C 163.248 181.950,162.766 182.235,162.111 184.400 C 160.129 190.946,160.057 191.023,152.116 195.066 C 144.422 198.982,130.639 204.509,130.051 203.914 C 129.880 203.741,128.539 198.920,127.070 193.200 L 124.400 182.800 120.800 181.035 C 118.820 180.064,116.913 179.158,116.562 179.022 C 116.211 178.886,117.201 176.324,118.762 173.329 L 121.600 167.884 121.600 155.142 C 121.600 148.134,121.910 142.400,122.289 142.400 C 122.667 142.400,126.717 143.135,131.289 144.034 M171.200 151.873 C 193.140 156.304,192.386 155.787,192.374 166.400 C 192.365 173.901,190.499 178.299,184.743 184.385 C 178.708 190.767,177.165 188.453,181.610 179.687 C 188.434 166.231,179.298 154.434,168.457 162.702 C 162.539 167.216,152.140 160.386,150.033 150.600 C 149.319 147.286,148.128 147.214,171.200 151.873 M294.217 159.620 C 299.153 161.086,302.721 163.924,304.835 168.069 C 307.000 172.312,306.959 172.373,301.795 172.618 C 275.713 173.853,242.012 198.331,227.197 226.800 C 209.512 260.784,189.858 273.752,167.805 265.989 C 156.213 261.908,148.772 247.255,149.876 230.681 C 150.313 224.126,154.014 213.600,155.883 213.600 C 159.130 213.600,166.403 228.262,167.202 236.416 C 169.176 256.577,188.102 256.518,196.378 236.326 C 197.623 233.287,199.903 227.777,201.443 224.083 C 204.423 216.938,204.323 215.051,200.939 214.547 C 198.734 214.219,196.959 217.118,192.701 228.000 C 187.365 241.638,185.121 244.800,180.777 244.800 C 170.407 244.800,171.803 229.894,184.088 209.454 C 188.785 201.638,188.813 201.284,185.000 197.935 L 182.000 195.301 184.000 193.923 C 187.796 191.309,193.538 184.678,195.366 180.797 C 198.117 174.958,217.735 166.697,230.939 165.818 C 240.574 165.176,241.213 165.776,235.102 169.726 C 229.018 173.658,218.400 183.734,218.400 185.575 C 218.400 189.324,222.051 189.707,225.250 186.293 C 241.931 168.497,277.624 154.692,294.217 159.620 M133.200 163.371 C 128.698 164.954,127.429 167.466,130.037 169.631 C 131.989 171.250,138.713 168.932,139.061 166.520 C 139.576 162.961,137.514 161.853,133.200 163.371 M308.176 179.058 C 314.257 181.471,368.800 262.213,368.800 268.803 C 368.800 270.082,367.140 273.537,364.816 277.097 C 359.754 284.852,359.000 284.900,351.395 277.959 C 344.653 271.806,344.011 270.175,344.004 259.188 C 343.997 246.492,333.719 233.585,317.905 226.415 C 308.243 222.034,301.292 215.330,295.240 204.555 C 291.814 198.455,288.400 198.073,288.400 203.789 C 288.400 207.100,288.284 207.247,283.365 210.157 C 280.595 211.796,273.575 216.708,267.765 221.074 C 255.696 230.142,250.914 232.628,243.354 233.763 C 232.862 235.339,231.685 241.634,242.083 240.561 L 246.260 240.130 246.812 247.493 C 247.132 251.760,246.957 259.256,246.395 265.324 C 245.044 279.925,247.362 286.987,259.428 305.034 L 264.560 312.709 261.420 315.755 C 259.693 317.430,254.617 323.260,250.140 328.712 C 242.562 337.940,241.984 338.464,241.762 336.312 C 240.946 328.393,238.436 324.173,235.161 325.212 C 233.017 325.893,232.749 327.565,234.134 331.632 C 235.035 334.273,235.289 337.192,235.026 341.864 L 234.658 348.400 227.929 358.025 C 224.228 363.319,220.940 367.819,220.622 368.025 C 220.304 368.231,216.825 363.125,212.890 356.679 C 208.658 349.747,204.254 343.592,202.111 341.617 C 196.355 336.312,191.156 327.200,193.885 327.200 C 194.541 327.200,196.111 326.330,197.375 325.266 L 199.673 323.333 201.582 326.930 C 203.825 331.159,210.097 337.600,211.972 337.600 C 215.722 337.600,216.246 333.074,212.790 330.519 C 209.815 328.319,206.869 323.752,205.518 319.242 C 204.863 317.055,202.973 314.271,200.252 311.484 C 197.047 308.201,195.884 306.355,195.498 303.940 C 194.905 300.233,192.884 298.671,190.400 300.000 C 187.388 301.612,189.440 309.942,194.008 314.646 C 196.515 317.227,196.614 317.517,195.356 318.613 C 192.516 321.088,190.389 321.779,188.949 320.697 C 182.213 315.635,180.580 311.990,182.735 306.832 C 185.904 299.249,180.627 296.052,177.069 303.399 L 175.453 306.735 172.401 300.560 C 168.829 293.333,168.755 293.558,174.400 294.480 C 180.354 295.452,189.432 294.125,195.519 291.392 C 201.376 288.762,206.948 288.652,213.662 291.035 C 218.746 292.840,220.800 292.289,220.800 289.121 C 220.800 286.898,216.539 284.442,211.076 283.516 L 208.152 283.020 211.998 278.246 C 217.357 271.596,220.258 265.775,223.107 255.952 C 231.665 226.454,244.221 207.878,264.800 194.270 C 280.750 183.723,301.548 176.429,308.176 179.058 M173.614 191.259 C 174.150 193.492,175.767 197.071,177.209 199.213 L 179.829 203.107 175.315 212.289 C 170.088 222.920,170.544 222.541,168.109 218.277 C 165.265 213.298,160.101 208.071,155.414 205.426 L 151.227 203.062 156.073 200.484 C 162.978 196.810,166.178 194.032,166.807 191.166 C 167.306 188.896,169.196 187.390,171.720 187.251 C 172.226 187.223,173.079 189.027,173.614 191.259 M208.600 196.864 C 205.685 198.562,207.392 203.200,210.932 203.200 C 213.620 203.200,214.848 200.403,213.238 197.946 C 211.860 195.843,210.784 195.592,208.600 196.864 M386.400 224.800 C 389.048 227.448,387.280 232.800,383.756 232.800 C 383.182 232.800,379.526 237.480,375.631 243.200 C 367.526 255.102,368.409 254.312,366.763 251.128 C 365.151 248.011,364.976 248.385,372.712 238.452 C 376.879 233.101,379.063 229.627,378.793 228.777 C 377.588 224.981,383.494 221.894,386.400 224.800 M154.259 264.735 C 168.455 278.931,194.616 277.506,211.302 261.628 C 216.580 256.606,216.685 257.194,212.153 266.400 C 195.395 300.444,149.332 293.288,145.942 256.114 L 145.458 250.800 147.899 255.808 C 149.241 258.562,152.103 262.579,154.259 264.735 M31.200 275.460 C 39.667 281.558,40.606 282.733,38.859 285.038 C 37.815 286.413,23.515 277.014,22.524 274.301 C 21.165 270.578,25.164 271.112,31.200 275.460 M26.555 285.453 C 34.208 291.316,34.294 291.419,33.067 293.290 C 31.637 295.473,32.256 295.747,22.600 288.637 C 15.323 283.278,14.054 281.466,16.128 279.392 C 17.250 278.270,16.948 278.095,26.555 285.453 M345.134 281.434 L 347.678 283.669 340.196 294.434 C 336.081 300.355,332.413 305.715,332.044 306.345 C 331.493 307.287,330.954 307.146,328.994 305.545 C 327.685 304.475,326.050 303.240,325.360 302.800 C 324.307 302.128,325.514 300.174,332.900 290.600 C 342.857 277.692,341.785 278.495,345.134 281.434 M276.856 287.200 C 277.202 287.860,278.560 290.805,279.874 293.744 C 284.925 305.039,289.337 307.821,296.580 304.277 C 301.473 301.883,307.048 301.085,311.200 302.184 L 314.000 302.925 311.600 304.150 C 310.280 304.825,307.335 305.587,305.055 305.844 C 300.465 306.362,295.610 308.534,293.276 311.115 C 290.773 313.882,287.797 313.294,284.608 309.400 C 275.408 298.170,269.911 284.757,274.912 285.741 C 275.636 285.883,276.511 286.540,276.856 287.200 M347.337 302.124 C 349.290 303.892,349.184 305.204,346.753 309.352 C 344.888 312.535,344.641 315.862,346.254 316.071 C 346.554 316.110,348.720 316.201,351.067 316.274 C 358.378 316.502,359.787 321.013,353.800 325.027 C 348.674 328.463,349.252 330.821,355.670 332.653 C 359.986 333.885,361.954 336.079,361.253 338.875 C 360.655 341.255,355.613 341.392,348.400 339.224 L 345.200 338.262 345.131 330.931 C 345.053 322.746,343.586 318.317,339.353 313.497 L 336.949 310.758 340.521 305.779 C 344.346 300.449,345.062 300.065,347.337 302.124 M217.428 305.483 C 215.983 306.739,213.248 308.737,211.351 309.924 C 207.146 312.555,206.713 316.205,210.554 316.649 C 216.796 317.369,227.053 306.490,222.453 304.028 C 220.359 302.908,220.409 302.893,217.428 305.483 M324.599 310.029 C 327.520 312.075,328.498 316.865,326.867 321.136 C 323.703 329.421,315.168 332.498,310.200 327.145 C 302.655 319.015,315.547 303.689,324.599 310.029 M336.852 321.702 C 338.881 325.678,339.619 331.999,338.579 336.494 C 337.078 342.986,343.926 346.681,358.800 347.405 C 362.481 347.584,362.800 347.759,362.800 349.600 C 362.800 353.893,339.705 350.433,333.918 345.273 L 332.042 343.600 333.773 337.829 C 335.359 332.543,335.418 331.622,334.478 326.892 C 332.901 318.957,334.107 316.321,336.852 321.702 " stroke="none" fill="#000000" fill-rule="evenodd"></path></g></svg>